<svg width="341" height="102" viewBox="0 0 341 102" fill="none" xmlns="http://www.w3.org/2000/svg">
<path d="M10.0003 4.66669C5.40533 4.66669 1.66699 8.40502 1.66699 13C1.66699 17.595 5.40533 21.3334 10.0003 21.3334C14.5953 21.3334 18.3337 17.595 18.3337 13C18.3337 8.40502 14.5953 4.66669 10.0003 4.66669ZM10.0003 19.6667C6.32449 19.6667 3.33366 16.6759 3.33366 13C3.33366 9.32419 6.32449 6.33335 10.0003 6.33335C13.6762 6.33335 16.667 9.32419 16.667 13C16.667 16.6759 13.6762 19.6667 10.0003 19.6667Z" fill="#6366F1"/>
<path d="M8.33273 14.3225L6.4169 12.41L5.24023 13.59L8.3344 16.6775L13.9227 11.0892L12.7444 9.91083L8.33273 14.3225Z" fill="#6366F1"/>
<path d="M29.12 19V7.48H33.568C34.2133 7.48 34.776 7.61333 35.256 7.88C35.736 8.14667 36.1093 8.50667 36.376 8.96C36.6427 9.408 36.776 9.904 36.776 10.448C36.776 11.0667 36.6107 11.6187 36.28 12.104C35.9493 12.584 35.5067 12.9173 34.952 13.104L34.936 12.712C35.6827 12.9253 36.2693 13.2987 36.696 13.832C37.1227 14.3653 37.336 15.0107 37.336 15.768C37.336 16.4347 37.1947 17.0107 36.912 17.496C36.6293 17.976 36.232 18.3467 35.72 18.608C35.208 18.8693 34.6133 19 33.936 19H29.12ZM30.304 17.872H33.648C34.1173 17.872 34.5387 17.7893 34.912 17.624C35.2853 17.4533 35.5787 17.2133 35.792 16.904C36.0107 16.5947 36.12 16.2213 36.12 15.784C36.12 15.3573 36.0213 14.9733 35.824 14.632C35.6267 14.2907 35.3573 14.0187 35.016 13.816C34.68 13.608 34.296 13.504 33.864 13.504H30.304V17.872ZM30.304 12.392H33.56C33.928 12.392 34.264 12.3093 34.568 12.144C34.872 11.9733 35.112 11.7413 35.288 11.448C35.4693 11.1547 35.56 10.816 35.56 10.432C35.56 9.888 35.3707 9.44533 34.992 9.104C34.6187 8.76267 34.1413 8.592 33.56 8.592H30.304V12.392ZM41.4045 19.24C40.7538 19.24 40.2072 19.1227 39.7645 18.888C39.3272 18.6533 38.9992 18.3413 38.7805 17.952C38.5618 17.5627 38.4525 17.1387 38.4525 16.68C38.4525 16.2107 38.5458 15.8107 38.7325 15.48C38.9245 15.144 39.1832 14.8693 39.5085 14.656C39.8392 14.4427 40.2205 14.28 40.6525 14.168C41.0898 14.0613 41.5725 13.968 42.1005 13.888C42.6338 13.8027 43.1538 13.7307 43.6605 13.672C44.1725 13.608 44.6205 13.5467 45.0045 13.488L44.5885 13.744C44.6045 12.8907 44.4392 12.2587 44.0925 11.848C43.7458 11.4373 43.1432 11.232 42.2845 11.232C41.6925 11.232 41.1912 11.3653 40.7805 11.632C40.3752 11.8987 40.0898 12.32 39.9245 12.896L38.7805 12.56C38.9778 11.7867 39.3752 11.1867 39.9725 10.76C40.5698 10.3333 41.3458 10.12 42.3005 10.12C43.0898 10.12 43.7592 10.2693 44.3085 10.568C44.8632 10.8613 45.2552 11.288 45.4845 11.848C45.5912 12.0987 45.6605 12.3787 45.6925 12.688C45.7245 12.9973 45.7405 13.312 45.7405 13.632V19H44.6925V16.832L44.9965 16.96C44.7032 17.7013 44.2472 18.2667 43.6285 18.656C43.0098 19.0453 42.2685 19.24 41.4045 19.24ZM41.5405 18.224C42.0898 18.224 42.5698 18.1253 42.9805 17.928C43.3912 17.7307 43.7218 17.4613 43.9725 17.12C44.2232 16.7733 44.3858 16.384 44.4605 15.952C44.5245 15.6747 44.5592 15.3707 44.5645 15.04C44.5698 14.704 44.5725 14.4533 44.5725 14.288L45.0205 14.52C44.6205 14.5733 44.1858 14.6267 43.7165 14.68C43.2525 14.7333 42.7938 14.7947 42.3405 14.864C41.8925 14.9333 41.4872 15.016 41.1245 15.112C40.8792 15.1813 40.6418 15.28 40.4125 15.408C40.1832 15.5307 39.9938 15.696 39.8445 15.904C39.7005 16.112 39.6285 16.3707 39.6285 16.68C39.6285 16.9307 39.6898 17.1733 39.8125 17.408C39.9405 17.6427 40.1432 17.8373 40.4205 17.992C40.7032 18.1467 41.0765 18.224 41.5405 18.224ZM54.0631 19V14.592C54.0631 14.112 54.0178 13.672 53.9271 13.272C53.8365 12.8667 53.6898 12.5147 53.4871 12.216C53.2898 11.912 53.0311 11.6773 52.7111 11.512C52.3965 11.3467 52.0125 11.264 51.5591 11.264C51.1431 11.264 50.7751 11.336 50.4551 11.48C50.1405 11.624 49.8738 11.832 49.6551 12.104C49.4418 12.3707 49.2791 12.696 49.1671 13.08C49.0551 13.464 48.9991 13.9013 48.9991 14.392L48.1671 14.208C48.1671 13.3227 48.3218 12.5787 48.6311 11.976C48.9405 11.3733 49.3671 10.9173 49.9111 10.608C50.4551 10.2987 51.0791 10.144 51.7831 10.144C52.3005 10.144 52.7511 10.224 53.1351 10.384C53.5245 10.544 53.8525 10.76 54.1191 11.032C54.3911 11.304 54.6098 11.616 54.7751 11.968C54.9405 12.3147 55.0605 12.6853 55.1351 13.08C55.2098 13.4693 55.2471 13.8587 55.2471 14.248V19H54.0631ZM47.8151 19V10.36H48.8791V12.488H48.9991V19H47.8151ZM57.3151 19L57.3231 7.48H58.5071V14.52L62.3631 10.36H63.9311L59.8831 14.68L64.4591 19H62.7471L58.5071 14.84V19H57.3151ZM65.4206 8.72V7.4H66.5966V8.72H65.4206ZM65.4206 19V10.36H66.5966V19H65.4206ZM75.235 19V14.592C75.235 14.112 75.1897 13.672 75.099 13.272C75.0083 12.8667 74.8617 12.5147 74.659 12.216C74.4617 11.912 74.203 11.6773 73.883 11.512C73.5683 11.3467 73.1843 11.264 72.731 11.264C72.315 11.264 71.947 11.336 71.627 11.48C71.3123 11.624 71.0457 11.832 70.827 12.104C70.6137 12.3707 70.451 12.696 70.339 13.08C70.227 13.464 70.171 13.9013 70.171 14.392L69.339 14.208C69.339 13.3227 69.4937 12.5787 69.803 11.976C70.1123 11.3733 70.539 10.9173 71.083 10.608C71.627 10.2987 72.251 10.144 72.955 10.144C73.4723 10.144 73.923 10.224 74.307 10.384C74.6963 10.544 75.0243 10.76 75.291 11.032C75.563 11.304 75.7817 11.616 75.947 11.968C76.1123 12.3147 76.2323 12.6853 76.307 13.08C76.3817 13.4693 76.419 13.8587 76.419 14.248V19H75.235ZM68.987 19V10.36H70.051V12.488H70.171V19H68.987ZM81.927 23.08C81.4843 23.08 81.047 23.0133 80.615 22.88C80.1883 22.752 79.7937 22.5467 79.431 22.264C79.0683 21.9867 78.7643 21.624 78.519 21.176L79.583 20.584C79.823 21.064 80.159 21.408 80.591 21.616C81.0283 21.8293 81.4737 21.936 81.927 21.936C82.551 21.936 83.055 21.8187 83.439 21.584C83.8283 21.3547 84.111 21.0133 84.287 20.56C84.463 20.1067 84.5483 19.5413 84.543 18.864V16.56H84.679V10.36H85.727V18.88C85.727 19.1253 85.719 19.36 85.703 19.584C85.6923 19.8133 85.6683 20.0373 85.631 20.256C85.5297 20.9013 85.319 21.432 84.999 21.848C84.6843 22.264 84.2683 22.5733 83.751 22.776C83.239 22.9787 82.631 23.08 81.927 23.08ZM81.847 19.24C81.0417 19.24 80.3537 19.04 79.783 18.64C79.2123 18.2347 78.775 17.688 78.471 17C78.167 16.312 78.015 15.536 78.015 14.672C78.015 13.8133 78.1643 13.04 78.463 12.352C78.767 11.664 79.2017 11.12 79.767 10.72C80.3323 10.32 81.0097 10.12 81.799 10.12C82.6097 10.12 83.2923 10.3173 83.847 10.712C84.4017 11.1067 84.8203 11.648 85.103 12.336C85.391 13.0187 85.535 13.7973 85.535 14.672C85.535 15.5307 85.3937 16.3067 85.111 17C84.8283 17.688 84.4123 18.2347 83.863 18.64C83.3137 19.04 82.6417 19.24 81.847 19.24ZM81.967 18.144C82.5803 18.144 83.087 17.9947 83.487 17.696C83.887 17.3973 84.1857 16.9867 84.383 16.464C84.5803 15.936 84.679 15.3387 84.679 14.672C84.679 13.9947 84.5803 13.3973 84.383 12.88C84.1857 12.3573 83.887 11.9493 83.487 11.656C83.0923 11.3627 82.5937 11.216 81.991 11.216C81.3723 11.216 80.8603 11.368 80.455 11.672C80.0497 11.976 79.7483 12.3893 79.551 12.912C79.359 13.4347 79.263 14.0213 79.263 14.672C79.263 15.328 79.3617 15.92 79.559 16.448C79.7617 16.9707 80.063 17.384 80.463 17.688C80.863 17.992 81.3643 18.144 81.967 18.144ZM95.8709 19C95.3855 19.1013 94.9055 19.1413 94.4309 19.12C93.9615 19.0987 93.5402 18.9973 93.1669 18.816C92.7989 18.6347 92.5189 18.352 92.3269 17.968C92.1722 17.648 92.0869 17.3253 92.0709 17C92.0602 16.6693 92.0549 16.2933 92.0549 15.872V7.96H93.2229V15.824C93.2229 16.1867 93.2255 16.4907 93.2309 16.736C93.2415 16.976 93.2975 17.1893 93.3989 17.376C93.5909 17.7333 93.8949 17.9467 94.3109 18.016C94.7322 18.0853 95.2522 18.0693 95.8709 17.968V19ZM90.2069 11.368V10.36H95.8709V11.368H90.2069ZM97.5731 19V10.36H98.6291V12.44L98.4211 12.168C98.5171 11.912 98.6425 11.6773 98.7971 11.464C98.9518 11.2453 99.1198 11.0667 99.3011 10.928C99.5251 10.7307 99.7865 10.5813 100.085 10.48C100.384 10.3733 100.685 10.312 100.989 10.296C101.293 10.2747 101.57 10.296 101.821 10.36V11.464C101.506 11.384 101.162 11.3653 100.789 11.408C100.416 11.4507 100.072 11.6 99.7571 11.856C99.4691 12.08 99.2531 12.3493 99.1091 12.664C98.9651 12.9733 98.8691 13.304 98.8211 13.656C98.7731 14.0027 98.7491 14.3467 98.7491 14.688V19H97.5731ZM105.483 19.24C104.832 19.24 104.285 19.1227 103.843 18.888C103.405 18.6533 103.077 18.3413 102.859 17.952C102.64 17.5627 102.531 17.1387 102.531 16.68C102.531 16.2107 102.624 15.8107 102.811 15.48C103.003 15.144 103.261 14.8693 103.587 14.656C103.917 14.4427 104.299 14.28 104.731 14.168C105.168 14.0613 105.651 13.968 106.179 13.888C106.712 13.8027 107.232 13.7307 107.739 13.672C108.251 13.608 108.699 13.5467 109.083 13.488L108.667 13.744C108.683 12.8907 108.517 12.2587 108.171 11.848C107.824 11.4373 107.221 11.232 106.363 11.232C105.771 11.232 105.269 11.3653 104.859 11.632C104.453 11.8987 104.168 12.32 104.003 12.896L102.859 12.56C103.056 11.7867 103.453 11.1867 104.051 10.76C104.648 10.3333 105.424 10.12 106.379 10.12C107.168 10.12 107.837 10.2693 108.387 10.568C108.941 10.8613 109.333 11.288 109.563 11.848C109.669 12.0987 109.739 12.3787 109.771 12.688C109.803 12.9973 109.819 13.312 109.819 13.632V19H108.771V16.832L109.075 16.96C108.781 17.7013 108.325 18.2667 107.707 18.656C107.088 19.0453 106.347 19.24 105.483 19.24ZM105.619 18.224C106.168 18.224 106.648 18.1253 107.059 17.928C107.469 17.7307 107.8 17.4613 108.051 17.12C108.301 16.7733 108.464 16.384 108.539 15.952C108.603 15.6747 108.637 15.3707 108.643 15.04C108.648 14.704 108.651 14.4533 108.651 14.288L109.099 14.52C108.699 14.5733 108.264 14.6267 107.795 14.68C107.331 14.7333 106.872 14.7947 106.419 14.864C105.971 14.9333 105.565 15.016 105.203 15.112C104.957 15.1813 104.72 15.28 104.491 15.408C104.261 15.5307 104.072 15.696 103.923 15.904C103.779 16.112 103.707 16.3707 103.707 16.68C103.707 16.9307 103.768 17.1733 103.891 17.408C104.019 17.6427 104.221 17.8373 104.499 17.992C104.781 18.1467 105.155 18.224 105.619 18.224ZM118.141 19V14.592C118.141 14.112 118.096 13.672 118.005 13.272C117.915 12.8667 117.768 12.5147 117.565 12.216C117.368 11.912 117.109 11.6773 116.789 11.512C116.475 11.3467 116.091 11.264 115.637 11.264C115.221 11.264 114.853 11.336 114.533 11.48C114.219 11.624 113.952 11.832 113.733 12.104C113.52 12.3707 113.357 12.696 113.245 13.08C113.133 13.464 113.077 13.9013 113.077 14.392L112.245 14.208C112.245 13.3227 112.4 12.5787 112.709 11.976C113.019 11.3733 113.445 10.9173 113.989 10.608C114.533 10.2987 115.157 10.144 115.861 10.144C116.379 10.144 116.829 10.224 117.213 10.384C117.603 10.544 117.931 10.76 118.197 11.032C118.469 11.304 118.688 11.616 118.853 11.968C119.019 12.3147 119.139 12.6853 119.213 13.08C119.288 13.4693 119.325 13.8587 119.325 14.248V19H118.141ZM111.893 19V10.36H112.957V12.488H113.077V19H111.893ZM124.625 19.232C123.612 19.232 122.777 19.0133 122.121 18.576C121.471 18.1387 121.071 17.5307 120.921 16.752L122.121 16.552C122.249 17.0427 122.54 17.4347 122.993 17.728C123.452 18.016 124.017 18.16 124.689 18.16C125.345 18.16 125.863 18.024 126.241 17.752C126.62 17.4747 126.809 17.0987 126.809 16.624C126.809 16.3573 126.748 16.1413 126.625 15.976C126.508 15.8053 126.265 15.648 125.897 15.504C125.529 15.36 124.98 15.1893 124.249 14.992C123.465 14.7787 122.852 14.5653 122.409 14.352C121.967 14.1387 121.652 13.8933 121.465 13.616C121.279 13.3333 121.185 12.9893 121.185 12.584C121.185 12.0933 121.324 11.664 121.601 11.296C121.879 10.9227 122.263 10.6347 122.753 10.432C123.244 10.224 123.815 10.12 124.465 10.12C125.116 10.12 125.697 10.2267 126.209 10.44C126.727 10.648 127.143 10.9413 127.457 11.32C127.772 11.6987 127.959 12.1387 128.017 12.64L126.817 12.856C126.737 12.3493 126.484 11.9493 126.057 11.656C125.636 11.3573 125.1 11.2027 124.449 11.192C123.836 11.176 123.337 11.2933 122.953 11.544C122.569 11.7893 122.377 12.1173 122.377 12.528C122.377 12.7573 122.447 12.9547 122.585 13.12C122.724 13.28 122.975 13.432 123.337 13.576C123.705 13.72 124.228 13.8773 124.905 14.048C125.7 14.2507 126.324 14.464 126.777 14.688C127.231 14.912 127.553 15.176 127.745 15.48C127.937 15.784 128.033 16.16 128.033 16.608C128.033 17.424 127.729 18.0667 127.121 18.536C126.519 19 125.687 19.232 124.625 19.232ZM132.28 19.24C131.629 19.24 131.082 19.1227 130.64 18.888C130.202 18.6533 129.874 18.3413 129.656 17.952C129.437 17.5627 129.328 17.1387 129.328 16.68C129.328 16.2107 129.421 15.8107 129.608 15.48C129.8 15.144 130.058 14.8693 130.384 14.656C130.714 14.4427 131.096 14.28 131.528 14.168C131.965 14.0613 132.448 13.968 132.976 13.888C133.509 13.8027 134.029 13.7307 134.536 13.672C135.048 13.608 135.496 13.5467 135.88 13.488L135.464 13.744C135.48 12.8907 135.314 12.2587 134.968 11.848C134.621 11.4373 134.018 11.232 133.16 11.232C132.568 11.232 132.066 11.3653 131.656 11.632C131.25 11.8987 130.965 12.32 130.799 12.896L129.656 12.56C129.853 11.7867 130.25 11.1867 130.848 10.76C131.445 10.3333 132.221 10.12 133.176 10.12C133.965 10.12 134.634 10.2693 135.184 10.568C135.738 10.8613 136.13 11.288 136.36 11.848C136.466 12.0987 136.536 12.3787 136.568 12.688C136.6 12.9973 136.616 13.312 136.616 13.632V19H135.568V16.832L135.872 16.96C135.578 17.7013 135.122 18.2667 134.504 18.656C133.885 19.0453 133.144 19.24 132.28 19.24ZM132.416 18.224C132.965 18.224 133.445 18.1253 133.856 17.928C134.266 17.7307 134.597 17.4613 134.848 17.12C135.098 16.7733 135.261 16.384 135.336 15.952C135.4 15.6747 135.434 15.3707 135.44 15.04C135.445 14.704 135.448 14.4533 135.448 14.288L135.896 14.52C135.496 14.5733 135.061 14.6267 134.592 14.68C134.128 14.7333 133.669 14.7947 133.216 14.864C132.768 14.9333 132.362 15.016 132 15.112C131.754 15.1813 131.517 15.28 131.288 15.408C131.058 15.5307 130.869 15.696 130.72 15.904C130.576 16.112 130.504 16.3707 130.504 16.68C130.504 16.9307 130.565 17.1733 130.688 17.408C130.816 17.6427 131.018 17.8373 131.296 17.992C131.578 18.1467 131.952 18.224 132.416 18.224ZM142.282 19.24C141.413 19.24 140.677 19.0453 140.074 18.656C139.471 18.2667 139.013 17.7307 138.698 17.048C138.389 16.36 138.229 15.5707 138.218 14.68C138.229 13.7733 138.394 12.9787 138.714 12.296C139.034 11.608 139.495 11.0747 140.098 10.696C140.701 10.312 141.431 10.12 142.29 10.12C143.165 10.12 143.925 10.3333 144.57 10.76C145.221 11.1867 145.666 11.7707 145.906 12.512L144.754 12.88C144.551 12.3627 144.229 11.9627 143.786 11.68C143.349 11.392 142.847 11.248 142.282 11.248C141.647 11.248 141.122 11.3947 140.706 11.688C140.29 11.976 139.981 12.3787 139.778 12.896C139.575 13.4133 139.471 14.008 139.466 14.68C139.477 15.7147 139.717 16.5467 140.186 17.176C140.655 17.8 141.354 18.112 142.282 18.112C142.869 18.112 143.367 17.9787 143.778 17.712C144.194 17.44 144.509 17.0453 144.722 16.528L145.906 16.88C145.586 17.648 145.117 18.2347 144.498 18.64C143.879 19.04 143.141 19.24 142.282 19.24ZM152.262 19C151.776 19.1013 151.296 19.1413 150.822 19.12C150.352 19.0987 149.931 18.9973 149.558 18.816C149.19 18.6347 148.91 18.352 148.718 17.968C148.563 17.648 148.478 17.3253 148.462 17C148.451 16.6693 148.446 16.2933 148.446 15.872V7.96H149.614V15.824C149.614 16.1867 149.616 16.4907 149.622 16.736C149.632 16.976 149.688 17.1893 149.79 17.376C149.982 17.7333 150.286 17.9467 150.702 18.016C151.123 18.0853 151.643 18.0693 152.262 17.968V19ZM146.598 11.368V10.36H152.262V11.368H146.598ZM154.124 8.72V7.4H155.3V8.72H154.124ZM154.124 19V10.36H155.3V19H154.124ZM161.306 19.24C160.447 19.24 159.714 19.0453 159.106 18.656C158.498 18.2667 158.031 17.728 157.706 17.04C157.381 16.352 157.218 15.5627 157.218 14.672C157.218 13.7653 157.383 12.9707 157.714 12.288C158.045 11.6053 158.514 11.0747 159.122 10.696C159.735 10.312 160.463 10.12 161.306 10.12C162.17 10.12 162.906 10.3147 163.514 10.704C164.127 11.088 164.594 11.624 164.914 12.312C165.239 12.9947 165.402 13.7813 165.402 14.672C165.402 15.5787 165.239 16.376 164.914 17.064C164.589 17.7467 164.119 18.28 163.506 18.664C162.893 19.048 162.159 19.24 161.306 19.24ZM161.306 18.112C162.266 18.112 162.981 17.7947 163.45 17.16C163.919 16.52 164.154 15.6907 164.154 14.672C164.154 13.6267 163.917 12.7947 163.442 12.176C162.973 11.5573 162.261 11.248 161.306 11.248C160.661 11.248 160.127 11.3947 159.706 11.688C159.29 11.976 158.978 12.3787 158.77 12.896C158.567 13.408 158.466 14 158.466 14.672C158.466 15.712 158.706 16.5467 159.186 17.176C159.666 17.8 160.373 18.112 161.306 18.112ZM173.407 19V14.592C173.407 14.112 173.362 13.672 173.271 13.272C173.18 12.8667 173.034 12.5147 172.831 12.216C172.634 11.912 172.375 11.6773 172.055 11.512C171.74 11.3467 171.356 11.264 170.903 11.264C170.487 11.264 170.119 11.336 169.799 11.48C169.484 11.624 169.218 11.832 168.999 12.104C168.786 12.3707 168.623 12.696 168.511 13.08C168.399 13.464 168.343 13.9013 168.343 14.392L167.511 14.208C167.511 13.3227 167.666 12.5787 167.975 11.976C168.284 11.3733 168.711 10.9173 169.255 10.608C169.799 10.2987 170.423 10.144 171.127 10.144C171.644 10.144 172.095 10.224 172.479 10.384C172.868 10.544 173.196 10.76 173.463 11.032C173.735 11.304 173.954 11.616 174.119 11.968C174.284 12.3147 174.404 12.6853 174.479 13.08C174.554 13.4693 174.591 13.8587 174.591 14.248V19H173.407ZM167.159 19V10.36H168.223V12.488H168.343V19H167.159ZM179.891 19.232C178.878 19.232 178.043 19.0133 177.387 18.576C176.736 18.1387 176.336 17.5307 176.187 16.752L177.387 16.552C177.515 17.0427 177.806 17.4347 178.259 17.728C178.718 18.016 179.283 18.16 179.955 18.16C180.611 18.16 181.128 18.024 181.507 17.752C181.886 17.4747 182.075 17.0987 182.075 16.624C182.075 16.3573 182.014 16.1413 181.891 15.976C181.774 15.8053 181.531 15.648 181.163 15.504C180.795 15.36 180.246 15.1893 179.515 14.992C178.731 14.7787 178.118 14.5653 177.675 14.352C177.232 14.1387 176.918 13.8933 176.731 13.616C176.544 13.3333 176.451 12.9893 176.451 12.584C176.451 12.0933 176.59 11.664 176.867 11.296C177.144 10.9227 177.528 10.6347 178.019 10.432C178.51 10.224 179.08 10.12 179.731 10.12C180.382 10.12 180.963 10.2267 181.475 10.44C181.992 10.648 182.408 10.9413 182.723 11.32C183.038 11.6987 183.224 12.1387 183.283 12.64L182.083 12.856C182.003 12.3493 181.75 11.9493 181.323 11.656C180.902 11.3573 180.366 11.2027 179.715 11.192C179.102 11.176 178.603 11.2933 178.219 11.544C177.835 11.7893 177.643 12.1173 177.643 12.528C177.643 12.7573 177.712 12.9547 177.851 13.12C177.99 13.28 178.24 13.432 178.603 13.576C178.971 13.72 179.494 13.8773 180.171 14.048C180.966 14.2507 181.59 14.464 182.043 14.688C182.496 14.912 182.819 15.176 183.011 15.48C183.203 15.784 183.299 16.16 183.299 16.608C183.299 17.424 182.995 18.0667 182.387 18.536C181.784 19 180.952 19.232 179.891 19.232ZM190.748 19.24C190.098 19.24 189.551 19.1227 189.108 18.888C188.671 18.6533 188.343 18.3413 188.124 17.952C187.906 17.5627 187.796 17.1387 187.796 16.68C187.796 16.2107 187.89 15.8107 188.076 15.48C188.268 15.144 188.527 14.8693 188.852 14.656C189.183 14.4427 189.564 14.28 189.996 14.168C190.434 14.0613 190.916 13.968 191.444 13.888C191.978 13.8027 192.498 13.7307 193.004 13.672C193.516 13.608 193.964 13.5467 194.348 13.488L193.932 13.744C193.948 12.8907 193.783 12.2587 193.436 11.848C193.09 11.4373 192.487 11.232 191.628 11.232C191.036 11.232 190.535 11.3653 190.124 11.632C189.719 11.8987 189.434 12.32 189.268 12.896L188.124 12.56C188.322 11.7867 188.719 11.1867 189.316 10.76C189.914 10.3333 190.69 10.12 191.644 10.12C192.434 10.12 193.103 10.2693 193.652 10.568C194.207 10.8613 194.599 11.288 194.828 11.848C194.935 12.0987 195.004 12.3787 195.036 12.688C195.068 12.9973 195.084 13.312 195.084 13.632V19H194.036V16.832L194.34 16.96C194.047 17.7013 193.591 18.2667 192.972 18.656C192.354 19.0453 191.612 19.24 190.748 19.24ZM190.884 18.224C191.434 18.224 191.914 18.1253 192.324 17.928C192.735 17.7307 193.066 17.4613 193.316 17.12C193.567 16.7733 193.73 16.384 193.804 15.952C193.868 15.6747 193.903 15.3707 193.908 15.04C193.914 14.704 193.916 14.4533 193.916 14.288L194.364 14.52C193.964 14.5733 193.53 14.6267 193.06 14.68C192.596 14.7333 192.138 14.7947 191.684 14.864C191.236 14.9333 190.831 15.016 190.468 15.112C190.223 15.1813 189.986 15.28 189.756 15.408C189.527 15.5307 189.338 15.696 189.188 15.904C189.044 16.112 188.972 16.3707 188.972 16.68C188.972 16.9307 189.034 17.1733 189.156 17.408C189.284 17.6427 189.487 17.8373 189.764 17.992C190.047 18.1467 190.42 18.224 190.884 18.224ZM197.167 19V10.36H198.223V12.44L198.015 12.168C198.111 11.912 198.236 11.6773 198.391 11.464C198.546 11.2453 198.714 11.0667 198.895 10.928C199.119 10.7307 199.38 10.5813 199.679 10.48C199.978 10.3733 200.279 10.312 200.583 10.296C200.887 10.2747 201.164 10.296 201.415 10.36V11.464C201.1 11.384 200.756 11.3653 200.383 11.408C200.01 11.4507 199.666 11.6 199.351 11.856C199.063 12.08 198.847 12.3493 198.703 12.664C198.559 12.9733 198.463 13.304 198.415 13.656C198.367 14.0027 198.343 14.3467 198.343 14.688V19H197.167ZM206.432 19.24C205.59 19.24 204.859 19.0533 204.24 18.68C203.627 18.3067 203.15 17.7813 202.808 17.104C202.467 16.4267 202.296 15.632 202.296 14.72C202.296 13.776 202.464 12.96 202.8 12.272C203.136 11.584 203.608 11.0533 204.216 10.68C204.83 10.3067 205.552 10.12 206.384 10.12C207.238 10.12 207.966 10.3173 208.568 10.712C209.171 11.1013 209.627 11.6613 209.936 12.392C210.246 13.1227 210.387 13.9947 210.36 15.008H209.16V14.592C209.139 13.472 208.896 12.6267 208.432 12.056C207.974 11.4853 207.302 11.2 206.416 11.2C205.488 11.2 204.776 11.5013 204.28 12.104C203.79 12.7067 203.544 13.5653 203.544 14.68C203.544 15.768 203.79 16.6133 204.28 17.216C204.776 17.8133 205.478 18.112 206.384 18.112C207.003 18.112 207.542 17.9707 208 17.688C208.464 17.4 208.83 16.9867 209.096 16.448L210.192 16.872C209.851 17.624 209.347 18.208 208.68 18.624C208.019 19.0347 207.27 19.24 206.432 19.24ZM203.128 15.008V14.024H209.728V15.008H203.128ZM216.195 19V9.72C216.195 9.496 216.205 9.27467 216.227 9.056C216.253 8.83733 216.304 8.62933 216.379 8.432C216.453 8.22933 216.571 8.04267 216.731 7.872C216.907 7.68 217.099 7.54133 217.307 7.456C217.515 7.36533 217.731 7.30667 217.955 7.28C218.184 7.25333 218.408 7.24 218.627 7.24H219.731V8.232H218.707C218.259 8.232 217.923 8.34133 217.699 8.56C217.48 8.77867 217.371 9.12267 217.371 9.592V19H216.195ZM214.699 11.368V10.36H219.731V11.368H214.699ZM221.011 19V10.36H222.067V12.44L221.859 12.168C221.955 11.912 222.08 11.6773 222.235 11.464C222.389 11.2453 222.557 11.0667 222.739 10.928C222.963 10.7307 223.224 10.5813 223.523 10.48C223.821 10.3733 224.123 10.312 224.427 10.296C224.731 10.2747 225.008 10.296 225.259 10.36V11.464C224.944 11.384 224.6 11.3653 224.227 11.408C223.853 11.4507 223.509 11.6 223.195 11.856C222.907 12.08 222.691 12.3493 222.547 12.664C222.403 12.9733 222.307 13.304 222.259 13.656C222.211 14.0027 222.187 14.3467 222.187 14.688V19H221.011ZM230.276 19.24C229.433 19.24 228.703 19.0533 228.084 18.68C227.471 18.3067 226.993 17.7813 226.652 17.104C226.311 16.4267 226.14 15.632 226.14 14.72C226.14 13.776 226.308 12.96 226.644 12.272C226.98 11.584 227.452 11.0533 228.06 10.68C228.673 10.3067 229.396 10.12 230.228 10.12C231.081 10.12 231.809 10.3173 232.412 10.712C233.015 11.1013 233.471 11.6613 233.78 12.392C234.089 13.1227 234.231 13.9947 234.204 15.008H233.004V14.592C232.983 13.472 232.74 12.6267 232.276 12.056C231.817 11.4853 231.145 11.2 230.26 11.2C229.332 11.2 228.62 11.5013 228.124 12.104C227.633 12.7067 227.388 13.5653 227.388 14.68C227.388 15.768 227.633 16.6133 228.124 17.216C228.62 17.8133 229.321 18.112 230.228 18.112C230.847 18.112 231.385 17.9707 231.844 17.688C232.308 17.4 232.673 16.9867 232.94 16.448L234.036 16.872C233.695 17.624 233.191 18.208 232.524 18.624C231.863 19.0347 231.113 19.24 230.276 19.24ZM226.972 15.008V14.024H233.572V15.008H226.972ZM239.635 19.24C238.793 19.24 238.062 19.0533 237.443 18.68C236.83 18.3067 236.353 17.7813 236.011 17.104C235.67 16.4267 235.499 15.632 235.499 14.72C235.499 13.776 235.667 12.96 236.003 12.272C236.339 11.584 236.811 11.0533 237.419 10.68C238.033 10.3067 238.755 10.12 239.587 10.12C240.441 10.12 241.169 10.3173 241.771 10.712C242.374 11.1013 242.83 11.6613 243.139 12.392C243.449 13.1227 243.59 13.9947 243.563 15.008H242.363V14.592C242.342 13.472 242.099 12.6267 241.635 12.056C241.177 11.4853 240.505 11.2 239.619 11.2C238.691 11.2 237.979 11.5013 237.483 12.104C236.993 12.7067 236.747 13.5653 236.747 14.68C236.747 15.768 236.993 16.6133 237.483 17.216C237.979 17.8133 238.681 18.112 239.587 18.112C240.206 18.112 240.745 17.9707 241.203 17.688C241.667 17.4 242.033 16.9867 242.299 16.448L243.395 16.872C243.054 17.624 242.55 18.208 241.883 18.624C241.222 19.0347 240.473 19.24 239.635 19.24ZM236.331 15.008V14.024H242.931V15.008H236.331ZM249.398 19V9.72C249.398 9.496 249.409 9.27467 249.43 9.056C249.457 8.83733 249.507 8.62933 249.582 8.432C249.657 8.22933 249.774 8.04267 249.934 7.872C250.11 7.68 250.302 7.54133 250.51 7.456C250.718 7.36533 250.934 7.30667 251.158 7.28C251.387 7.25333 251.611 7.24 251.83 7.24H252.934V8.232H251.91C251.462 8.232 251.126 8.34133 250.902 8.56C250.683 8.77867 250.574 9.12267 250.574 9.592V19H249.398ZM247.902 11.368V10.36H252.934V11.368H247.902ZM257.509 19.24C256.651 19.24 255.917 19.0453 255.309 18.656C254.701 18.2667 254.235 17.728 253.909 17.04C253.584 16.352 253.421 15.5627 253.421 14.672C253.421 13.7653 253.587 12.9707 253.917 12.288C254.248 11.6053 254.717 11.0747 255.325 10.696C255.939 10.312 256.667 10.12 257.509 10.12C258.373 10.12 259.109 10.3147 259.717 10.704C260.331 11.088 260.797 11.624 261.117 12.312C261.443 12.9947 261.605 13.7813 261.605 14.672C261.605 15.5787 261.443 16.376 261.117 17.064C260.792 17.7467 260.323 18.28 259.709 18.664C259.096 19.048 258.363 19.24 257.509 19.24ZM257.509 18.112C258.469 18.112 259.184 17.7947 259.653 17.16C260.123 16.52 260.357 15.6907 260.357 14.672C260.357 13.6267 260.12 12.7947 259.645 12.176C259.176 11.5573 258.464 11.248 257.509 11.248C256.864 11.248 256.331 11.3947 255.909 11.688C255.493 11.976 255.181 12.3787 254.973 12.896C254.771 13.408 254.669 14 254.669 14.672C254.669 15.712 254.909 16.5467 255.389 17.176C255.869 17.8 256.576 18.112 257.509 18.112ZM263.37 19V10.36H264.426V12.44L264.218 12.168C264.314 11.912 264.439 11.6773 264.594 11.464C264.749 11.2453 264.917 11.0667 265.098 10.928C265.322 10.7307 265.583 10.5813 265.882 10.48C266.181 10.3733 266.482 10.312 266.786 10.296C267.09 10.2747 267.367 10.296 267.618 10.36V11.464C267.303 11.384 266.959 11.3653 266.586 11.408C266.213 11.4507 265.869 11.6 265.554 11.856C265.266 12.08 265.05 12.3493 264.906 12.664C264.762 12.9733 264.666 13.304 264.618 13.656C264.57 14.0027 264.546 14.3467 264.546 14.688V19H263.37ZM273.571 22.84L275.243 18.304L275.267 19.648L271.483 10.36H272.731L275.835 18.128H275.323L278.187 10.36H279.387L274.747 22.84H273.571ZM284.072 19.24C283.213 19.24 282.48 19.0453 281.872 18.656C281.264 18.2667 280.797 17.728 280.472 17.04C280.146 16.352 279.984 15.5627 279.984 14.672C279.984 13.7653 280.149 12.9707 280.48 12.288C280.81 11.6053 281.28 11.0747 281.888 10.696C282.501 10.312 283.229 10.12 284.072 10.12C284.936 10.12 285.672 10.3147 286.28 10.704C286.893 11.088 287.36 11.624 287.68 12.312C288.005 12.9947 288.168 13.7813 288.168 14.672C288.168 15.5787 288.005 16.376 287.68 17.064C287.354 17.7467 286.885 18.28 286.272 18.664C285.658 19.048 284.925 19.24 284.072 19.24ZM284.072 18.112C285.032 18.112 285.746 17.7947 286.216 17.16C286.685 16.52 286.92 15.6907 286.92 14.672C286.92 13.6267 286.682 12.7947 286.208 12.176C285.738 11.5573 285.026 11.248 284.072 11.248C283.426 11.248 282.893 11.3947 282.472 11.688C282.056 11.976 281.744 12.3787 281.536 12.896C281.333 13.408 281.232 14 281.232 14.672C281.232 15.712 281.472 16.5467 281.952 17.176C282.432 17.8 283.138 18.112 284.072 18.112ZM293.237 19.216C292.719 19.216 292.266 19.136 291.877 18.976C291.493 18.816 291.165 18.6 290.893 18.328C290.626 18.056 290.41 17.7467 290.245 17.4C290.079 17.048 289.959 16.6773 289.885 16.288C289.81 15.8933 289.773 15.5013 289.773 15.112V10.36H290.957V14.768C290.957 15.2427 291.002 15.6827 291.093 16.088C291.183 16.4933 291.327 16.848 291.525 17.152C291.727 17.4507 291.986 17.6827 292.301 17.848C292.621 18.0133 293.007 18.096 293.461 18.096C293.877 18.096 294.242 18.024 294.557 17.88C294.877 17.736 295.143 17.5307 295.357 17.264C295.575 16.992 295.741 16.664 295.853 16.28C295.965 15.8907 296.021 15.4533 296.021 14.968L296.852 15.152C296.852 16.0373 296.698 16.7813 296.389 17.384C296.079 17.9867 295.653 18.4427 295.109 18.752C294.565 19.0613 293.941 19.216 293.237 19.216ZM296.141 19V16.872H296.021V10.36H297.197V19H296.141Z" fill="#565973"/>
<path d="M10.0003 42.6667C5.40533 42.6667 1.66699 46.405 1.66699 51C1.66699 55.595 5.40533 59.3334 10.0003 59.3334C14.5953 59.3334 18.3337 55.595 18.3337 51C18.3337 46.405 14.5953 42.6667 10.0003 42.6667ZM10.0003 57.6667C6.32449 57.6667 3.33366 54.6759 3.33366 51C3.33366 47.3242 6.32449 44.3334 10.0003 44.3334C13.6762 44.3334 16.667 47.3242 16.667 51C16.667 54.6759 13.6762 57.6667 10.0003 57.6667Z" fill="#6366F1"/>
<path d="M8.33273 52.3225L6.4169 50.41L5.24023 51.59L8.3344 54.6775L13.9227 49.0892L12.7444 47.9108L8.33273 52.3225Z" fill="#6366F1"/>
<path d="M29.12 57V45.48H30.304L36.648 54.92V45.48H37.832V57H36.648L30.304 47.552V57H29.12ZM43.6811 57.24C42.8225 57.24 42.0891 57.0453 41.4811 56.656C40.8731 56.2667 40.4065 55.728 40.0811 55.04C39.7558 54.352 39.5931 53.5627 39.5931 52.672C39.5931 51.7653 39.7585 50.9707 40.0891 50.288C40.4198 49.6053 40.8891 49.0747 41.4971 48.696C42.1105 48.312 42.8385 48.12 43.6811 48.12C44.5451 48.12 45.2811 48.3147 45.8891 48.704C46.5025 49.088 46.9691 49.624 47.2891 50.312C47.6145 50.9947 47.7771 51.7813 47.7771 52.672C47.7771 53.5787 47.6145 54.376 47.2891 55.064C46.9638 55.7467 46.4945 56.28 45.8811 56.664C45.2678 57.048 44.5345 57.24 43.6811 57.24ZM43.6811 56.112C44.6411 56.112 45.3558 55.7947 45.8251 55.16C46.2945 54.52 46.5291 53.6907 46.5291 52.672C46.5291 51.6267 46.2918 50.7947 45.8171 50.176C45.3478 49.5573 44.6358 49.248 43.6811 49.248C43.0358 49.248 42.5025 49.3947 42.0811 49.688C41.6651 49.976 41.3531 50.3787 41.1451 50.896C40.9425 51.408 40.8411 52 40.8411 52.672C40.8411 53.712 41.0811 54.5467 41.5611 55.176C42.0411 55.8 42.7478 56.112 43.6811 56.112ZM63.049 57L63.057 51.328C63.057 50.6613 62.8703 50.1387 62.497 49.76C62.129 49.376 61.6597 49.184 61.089 49.184C60.7637 49.184 60.4463 49.2587 60.137 49.408C59.8277 49.5573 59.5717 49.7973 59.369 50.128C59.1717 50.4587 59.073 50.8907 59.073 51.424L58.377 51.224C58.361 50.6053 58.481 50.064 58.737 49.6C58.9983 49.136 59.3557 48.776 59.809 48.52C60.2677 48.2587 60.785 48.128 61.361 48.128C62.2303 48.128 62.9263 48.3973 63.449 48.936C63.9717 49.4693 64.233 50.192 64.233 51.104L64.225 57H63.049ZM52.737 57V48.36H53.793V50.488H53.921V57H52.737ZM57.905 57L57.913 51.408C57.913 50.72 57.729 50.1787 57.361 49.784C56.9983 49.384 56.5183 49.184 55.921 49.184C55.3237 49.184 54.841 49.3893 54.473 49.8C54.105 50.2053 53.921 50.7467 53.921 51.424L53.217 51.04C53.217 50.4853 53.3477 49.9893 53.609 49.552C53.8703 49.1093 54.2277 48.7627 54.681 48.512C55.1343 48.256 55.649 48.128 56.225 48.128C56.7743 48.128 57.2623 48.2453 57.689 48.48C58.121 48.7147 58.4597 49.056 58.705 49.504C58.9503 49.952 59.073 50.496 59.073 51.136L59.065 57H57.905ZM69.8686 57.24C69.01 57.24 68.2766 57.0453 67.6686 56.656C67.0606 56.2667 66.594 55.728 66.2686 55.04C65.9433 54.352 65.7806 53.5627 65.7806 52.672C65.7806 51.7653 65.946 50.9707 66.2766 50.288C66.6073 49.6053 67.0766 49.0747 67.6846 48.696C68.298 48.312 69.026 48.12 69.8686 48.12C70.7326 48.12 71.4686 48.3147 72.0766 48.704C72.69 49.088 73.1566 49.624 73.4766 50.312C73.802 50.9947 73.9646 51.7813 73.9646 52.672C73.9646 53.5787 73.802 54.376 73.4766 55.064C73.1513 55.7467 72.682 56.28 72.0686 56.664C71.4553 57.048 70.722 57.24 69.8686 57.24ZM69.8686 56.112C70.8286 56.112 71.5433 55.7947 72.0126 55.16C72.482 54.52 72.7166 53.6907 72.7166 52.672C72.7166 51.6267 72.4793 50.7947 72.0046 50.176C71.5353 49.5573 70.8233 49.248 69.8686 49.248C69.2233 49.248 68.69 49.3947 68.2686 49.688C67.8526 49.976 67.5406 50.3787 67.3326 50.896C67.13 51.408 67.0286 52 67.0286 52.672C67.0286 53.712 67.2686 54.5467 67.7486 55.176C68.2286 55.8 68.9353 56.112 69.8686 56.112ZM81.9694 57V52.592C81.9694 52.112 81.924 51.672 81.8334 51.272C81.7427 50.8667 81.596 50.5147 81.3934 50.216C81.196 49.912 80.9374 49.6773 80.6174 49.512C80.3027 49.3467 79.9187 49.264 79.4654 49.264C79.0494 49.264 78.6814 49.336 78.3614 49.48C78.0467 49.624 77.78 49.832 77.5614 50.104C77.348 50.3707 77.1854 50.696 77.0734 51.08C76.9614 51.464 76.9054 51.9013 76.9054 52.392L76.0734 52.208C76.0734 51.3227 76.228 50.5787 76.5374 49.976C76.8467 49.3733 77.2734 48.9173 77.8174 48.608C78.3614 48.2987 78.9854 48.144 79.6894 48.144C80.2067 48.144 80.6574 48.224 81.0414 48.384C81.4307 48.544 81.7587 48.76 82.0254 49.032C82.2974 49.304 82.516 49.616 82.6814 49.968C82.8467 50.3147 82.9667 50.6853 83.0414 51.08C83.116 51.4693 83.1534 51.8587 83.1534 52.248V57H81.9694ZM75.7214 57V48.36H76.7854V50.488H76.9054V57H75.7214ZM89.9334 57C89.448 57.1013 88.968 57.1413 88.4934 57.12C88.024 57.0987 87.6027 56.9973 87.2294 56.816C86.8614 56.6347 86.5814 56.352 86.3894 55.968C86.2347 55.648 86.1494 55.3253 86.1334 55C86.1227 54.6693 86.1174 54.2933 86.1174 53.872V45.96H87.2854V53.824C87.2854 54.1867 87.288 54.4907 87.2934 54.736C87.304 54.976 87.36 55.1893 87.4614 55.376C87.6534 55.7333 87.9574 55.9467 88.3734 56.016C88.7947 56.0853 89.3147 56.0693 89.9334 55.968V57ZM84.2694 49.368V48.36H89.9334V49.368H84.2694ZM97.8756 57V52.592C97.8756 52.112 97.8303 51.672 97.7396 51.272C97.649 50.8667 97.5023 50.5147 97.2996 50.216C97.1023 49.912 96.8436 49.6773 96.5236 49.512C96.209 49.3467 95.825 49.264 95.3716 49.264C94.9556 49.264 94.5876 49.336 94.2676 49.48C93.953 49.624 93.6863 49.832 93.4676 50.104C93.2543 50.3707 93.0916 50.696 92.9796 51.08C92.8676 51.464 92.8116 51.9013 92.8116 52.392L91.9796 52.208C91.9796 51.3227 92.1343 50.5787 92.4436 49.976C92.753 49.3733 93.1796 48.9173 93.7236 48.608C94.2676 48.2987 94.8916 48.144 95.5956 48.144C96.113 48.144 96.5636 48.224 96.9476 48.384C97.337 48.544 97.665 48.76 97.9316 49.032C98.2036 49.304 98.4223 49.616 98.5876 49.968C98.753 50.3147 98.873 50.6853 98.9476 51.08C99.0223 51.4693 99.0596 51.8587 99.0596 52.248V57H97.8756ZM91.6276 57V45.48H92.6916V51.984H92.8116V57H91.6276ZM101.296 57V45.24H102.472V57H101.296ZM106.102 60.84L107.774 56.304L107.798 57.648L104.014 48.36H105.262L108.366 56.128H107.854L110.718 48.36H111.918L107.278 60.84H106.102ZM120.095 57.24C119.225 57.24 118.489 57.0453 117.887 56.656C117.284 56.2667 116.825 55.7307 116.511 55.048C116.201 54.36 116.041 53.5707 116.031 52.68C116.041 51.7733 116.207 50.9787 116.527 50.296C116.847 49.608 117.308 49.0747 117.911 48.696C118.513 48.312 119.244 48.12 120.103 48.12C120.977 48.12 121.737 48.3333 122.383 48.76C123.033 49.1867 123.479 49.7707 123.719 50.512L122.567 50.88C122.364 50.3627 122.041 49.9627 121.599 49.68C121.161 49.392 120.66 49.248 120.095 49.248C119.46 49.248 118.935 49.3947 118.519 49.688C118.103 49.976 117.793 50.3787 117.591 50.896C117.388 51.4133 117.284 52.008 117.279 52.68C117.289 53.7147 117.529 54.5467 117.999 55.176C118.468 55.8 119.167 56.112 120.095 56.112C120.681 56.112 121.18 55.9787 121.591 55.712C122.007 55.44 122.321 55.0453 122.535 54.528L123.719 54.88C123.399 55.648 122.929 56.2347 122.311 56.64C121.692 57.04 120.953 57.24 120.095 57.24ZM127.795 57.24C127.144 57.24 126.598 57.1227 126.155 56.888C125.718 56.6533 125.39 56.3413 125.171 55.952C124.952 55.5627 124.843 55.1387 124.843 54.68C124.843 54.2107 124.936 53.8107 125.123 53.48C125.315 53.144 125.574 52.8693 125.899 52.656C126.23 52.4427 126.611 52.28 127.043 52.168C127.48 52.0613 127.963 51.968 128.491 51.888C129.024 51.8027 129.544 51.7307 130.051 51.672C130.563 51.608 131.011 51.5467 131.395 51.488L130.979 51.744C130.995 50.8907 130.83 50.2587 130.483 49.848C130.136 49.4373 129.534 49.232 128.675 49.232C128.083 49.232 127.582 49.3653 127.171 49.632C126.766 49.8987 126.48 50.32 126.315 50.896L125.171 50.56C125.368 49.7867 125.766 49.1867 126.363 48.76C126.96 48.3333 127.736 48.12 128.691 48.12C129.48 48.12 130.15 48.2693 130.699 48.568C131.254 48.8613 131.646 49.288 131.875 49.848C131.982 50.0987 132.051 50.3787 132.083 50.688C132.115 50.9973 132.131 51.312 132.131 51.632V57H131.083V54.832L131.387 54.96C131.094 55.7013 130.638 56.2667 130.019 56.656C129.4 57.0453 128.659 57.24 127.795 57.24ZM127.931 56.224C128.48 56.224 128.96 56.1253 129.371 55.928C129.782 55.7307 130.112 55.4613 130.363 55.12C130.614 54.7733 130.776 54.384 130.851 53.952C130.915 53.6747 130.95 53.3707 130.955 53.04C130.96 52.704 130.963 52.4533 130.963 52.288L131.411 52.52C131.011 52.5733 130.576 52.6267 130.107 52.68C129.643 52.7333 129.184 52.7947 128.731 52.864C128.283 52.9333 127.878 53.016 127.515 53.112C127.27 53.1813 127.032 53.28 126.803 53.408C126.574 53.5307 126.384 53.696 126.235 53.904C126.091 54.112 126.019 54.3707 126.019 54.68C126.019 54.9307 126.08 55.1733 126.203 55.408C126.331 55.6427 126.534 55.8373 126.811 55.992C127.094 56.1467 127.467 56.224 127.931 56.224ZM137.438 57.232C136.424 57.232 135.59 57.0133 134.934 56.576C134.283 56.1387 133.883 55.5307 133.734 54.752L134.934 54.552C135.062 55.0427 135.352 55.4347 135.806 55.728C136.264 56.016 136.83 56.16 137.502 56.16C138.158 56.16 138.675 56.024 139.054 55.752C139.432 55.4747 139.622 55.0987 139.622 54.624C139.622 54.3573 139.56 54.1413 139.438 53.976C139.32 53.8053 139.078 53.648 138.71 53.504C138.342 53.36 137.792 53.1893 137.062 52.992C136.278 52.7787 135.664 52.5653 135.222 52.352C134.779 52.1387 134.464 51.8933 134.278 51.616C134.091 51.3333 133.998 50.9893 133.998 50.584C133.998 50.0933 134.136 49.664 134.414 49.296C134.691 48.9227 135.075 48.6347 135.566 48.432C136.056 48.224 136.627 48.12 137.278 48.12C137.928 48.12 138.51 48.2267 139.022 48.44C139.539 48.648 139.955 48.9413 140.27 49.32C140.584 49.6987 140.771 50.1387 140.83 50.64L139.63 50.856C139.55 50.3493 139.296 49.9493 138.87 49.656C138.448 49.3573 137.912 49.2027 137.262 49.192C136.648 49.176 136.15 49.2933 135.766 49.544C135.382 49.7893 135.19 50.1173 135.19 50.528C135.19 50.7573 135.259 50.9547 135.398 51.12C135.536 51.28 135.787 51.432 136.15 51.576C136.518 51.72 137.04 51.8773 137.718 52.048C138.512 52.2507 139.136 52.464 139.59 52.688C140.043 52.912 140.366 53.176 140.558 53.48C140.75 53.784 140.846 54.16 140.846 54.608C140.846 55.424 140.542 56.0667 139.934 56.536C139.331 57 138.499 57.232 137.438 57.232ZM148.86 57V52.592C148.86 52.112 148.815 51.672 148.724 51.272C148.633 50.8667 148.487 50.5147 148.284 50.216C148.087 49.912 147.828 49.6773 147.508 49.512C147.193 49.3467 146.809 49.264 146.356 49.264C145.94 49.264 145.572 49.336 145.252 49.48C144.937 49.624 144.671 49.832 144.452 50.104C144.239 50.3707 144.076 50.696 143.964 51.08C143.852 51.464 143.796 51.9013 143.796 52.392L142.964 52.208C142.964 51.3227 143.119 50.5787 143.428 49.976C143.737 49.3733 144.164 48.9173 144.708 48.608C145.252 48.2987 145.876 48.144 146.58 48.144C147.097 48.144 147.548 48.224 147.932 48.384C148.321 48.544 148.649 48.76 148.916 49.032C149.188 49.304 149.407 49.616 149.572 49.968C149.737 50.3147 149.857 50.6853 149.932 51.08C150.007 51.4693 150.044 51.8587 150.044 52.248V57H148.86ZM142.612 57V45.48H143.676V51.984H143.796V57H142.612ZM158.907 57.24C158.038 57.24 157.302 57.0453 156.699 56.656C156.096 56.2667 155.638 55.7307 155.323 55.048C155.014 54.36 154.854 53.5707 154.843 52.68C154.854 51.7733 155.019 50.9787 155.339 50.296C155.659 49.608 156.12 49.0747 156.723 48.696C157.326 48.312 158.056 48.12 158.915 48.12C159.79 48.12 160.55 48.3333 161.195 48.76C161.846 49.1867 162.291 49.7707 162.531 50.512L161.379 50.88C161.176 50.3627 160.854 49.9627 160.411 49.68C159.974 49.392 159.472 49.248 158.907 49.248C158.272 49.248 157.747 49.3947 157.331 49.688C156.915 49.976 156.606 50.3787 156.403 50.896C156.2 51.4133 156.096 52.008 156.091 52.68C156.102 53.7147 156.342 54.5467 156.811 55.176C157.28 55.8 157.979 56.112 158.907 56.112C159.494 56.112 159.992 55.9787 160.403 55.712C160.819 55.44 161.134 55.0453 161.347 54.528L162.531 54.88C162.211 55.648 161.742 56.2347 161.123 56.64C160.504 57.04 159.766 57.24 158.907 57.24ZM167.556 57.24C166.697 57.24 165.964 57.0453 165.356 56.656C164.748 56.2667 164.281 55.728 163.956 55.04C163.631 54.352 163.468 53.5627 163.468 52.672C163.468 51.7653 163.633 50.9707 163.964 50.288C164.295 49.6053 164.764 49.0747 165.372 48.696C165.985 48.312 166.713 48.12 167.556 48.12C168.42 48.12 169.156 48.3147 169.764 48.704C170.377 49.088 170.844 49.624 171.164 50.312C171.489 50.9947 171.652 51.7813 171.652 52.672C171.652 53.5787 171.489 54.376 171.164 55.064C170.839 55.7467 170.369 56.28 169.756 56.664C169.143 57.048 168.409 57.24 167.556 57.24ZM167.556 56.112C168.516 56.112 169.231 55.7947 169.7 55.16C170.169 54.52 170.404 53.6907 170.404 52.672C170.404 51.6267 170.167 50.7947 169.692 50.176C169.223 49.5573 168.511 49.248 167.556 49.248C166.911 49.248 166.377 49.3947 165.956 49.688C165.54 49.976 165.228 50.3787 165.02 50.896C164.817 51.408 164.716 52 164.716 52.672C164.716 53.712 164.956 54.5467 165.436 55.176C165.916 55.8 166.623 56.112 167.556 56.112ZM183.721 57L183.729 51.328C183.729 50.6613 183.542 50.1387 183.169 49.76C182.801 49.376 182.332 49.184 181.761 49.184C181.436 49.184 181.118 49.2587 180.809 49.408C180.5 49.5573 180.244 49.7973 180.041 50.128C179.844 50.4587 179.745 50.8907 179.745 51.424L179.049 51.224C179.033 50.6053 179.153 50.064 179.409 49.6C179.67 49.136 180.028 48.776 180.481 48.52C180.94 48.2587 181.457 48.128 182.033 48.128C182.902 48.128 183.598 48.3973 184.121 48.936C184.644 49.4693 184.905 50.192 184.905 51.104L184.897 57H183.721ZM173.409 57V48.36H174.465V50.488H174.593V57H173.409ZM178.577 57L178.585 51.408C178.585 50.72 178.401 50.1787 178.033 49.784C177.67 49.384 177.19 49.184 176.593 49.184C175.996 49.184 175.513 49.3893 175.145 49.8C174.777 50.2053 174.593 50.7467 174.593 51.424L173.889 51.04C173.889 50.4853 174.02 49.9893 174.281 49.552C174.542 49.1093 174.9 48.7627 175.353 48.512C175.806 48.256 176.321 48.128 176.897 48.128C177.446 48.128 177.934 48.2453 178.361 48.48C178.793 48.7147 179.132 49.056 179.377 49.504C179.622 49.952 179.745 50.496 179.745 51.136L179.737 57H178.577ZM197.283 57L197.291 51.328C197.291 50.6613 197.105 50.1387 196.731 49.76C196.363 49.376 195.894 49.184 195.323 49.184C194.998 49.184 194.681 49.2587 194.371 49.408C194.062 49.5573 193.806 49.7973 193.603 50.128C193.406 50.4587 193.307 50.8907 193.307 51.424L192.611 51.224C192.595 50.6053 192.715 50.064 192.971 49.6C193.233 49.136 193.59 48.776 194.043 48.52C194.502 48.2587 195.019 48.128 195.595 48.128C196.465 48.128 197.161 48.3973 197.683 48.936C198.206 49.4693 198.467 50.192 198.467 51.104L198.459 57H197.283ZM186.971 57V48.36H188.027V50.488H188.155V57H186.971ZM192.139 57L192.147 51.408C192.147 50.72 191.963 50.1787 191.595 49.784C191.233 49.384 190.753 49.184 190.155 49.184C189.558 49.184 189.075 49.3893 188.707 49.8C188.339 50.2053 188.155 50.7467 188.155 51.424L187.451 51.04C187.451 50.4853 187.582 49.9893 187.843 49.552C188.105 49.1093 188.462 48.7627 188.915 48.512C189.369 48.256 189.883 48.128 190.459 48.128C191.009 48.128 191.497 48.2453 191.923 48.48C192.355 48.7147 192.694 49.056 192.939 49.504C193.185 49.952 193.307 50.496 193.307 51.136L193.299 57H192.139ZM200.702 46.72V45.4H201.878V46.72H200.702ZM200.702 57V48.36H201.878V57H200.702ZM207.5 57.232C206.487 57.232 205.652 57.0133 204.996 56.576C204.346 56.1387 203.946 55.5307 203.796 54.752L204.996 54.552C205.124 55.0427 205.415 55.4347 205.868 55.728C206.327 56.016 206.892 56.16 207.564 56.16C208.22 56.16 208.738 56.024 209.116 55.752C209.495 55.4747 209.684 55.0987 209.684 54.624C209.684 54.3573 209.623 54.1413 209.5 53.976C209.383 53.8053 209.14 53.648 208.772 53.504C208.404 53.36 207.855 53.1893 207.124 52.992C206.34 52.7787 205.727 52.5653 205.284 52.352C204.842 52.1387 204.527 51.8933 204.34 51.616C204.154 51.3333 204.06 50.9893 204.06 50.584C204.06 50.0933 204.199 49.664 204.476 49.296C204.754 48.9227 205.138 48.6347 205.628 48.432C206.119 48.224 206.69 48.12 207.34 48.12C207.991 48.12 208.572 48.2267 209.084 48.44C209.602 48.648 210.018 48.9413 210.332 49.32C210.647 49.6987 210.834 50.1387 210.892 50.64L209.692 50.856C209.612 50.3493 209.359 49.9493 208.932 49.656C208.511 49.3573 207.975 49.2027 207.324 49.192C206.711 49.176 206.212 49.2933 205.828 49.544C205.444 49.7893 205.252 50.1173 205.252 50.528C205.252 50.7573 205.322 50.9547 205.46 51.12C205.599 51.28 205.85 51.432 206.212 51.576C206.58 51.72 207.103 51.8773 207.78 52.048C208.575 52.2507 209.199 52.464 209.652 52.688C210.106 52.912 210.428 53.176 210.62 53.48C210.812 53.784 210.908 54.16 210.908 54.608C210.908 55.424 210.604 56.0667 209.996 56.536C209.394 57 208.562 57.232 207.5 57.232ZM215.907 57.232C214.893 57.232 214.059 57.0133 213.403 56.576C212.752 56.1387 212.352 55.5307 212.203 54.752L213.403 54.552C213.531 55.0427 213.821 55.4347 214.275 55.728C214.733 56.016 215.299 56.16 215.97 56.16C216.627 56.16 217.144 56.024 217.523 55.752C217.901 55.4747 218.091 55.0987 218.091 54.624C218.091 54.3573 218.029 54.1413 217.907 53.976C217.789 53.8053 217.547 53.648 217.179 53.504C216.811 53.36 216.261 53.1893 215.531 52.992C214.747 52.7787 214.133 52.5653 213.691 52.352C213.248 52.1387 212.933 51.8933 212.747 51.616C212.56 51.3333 212.467 50.9893 212.467 50.584C212.467 50.0933 212.605 49.664 212.883 49.296C213.16 48.9227 213.544 48.6347 214.035 48.432C214.525 48.224 215.096 48.12 215.747 48.12C216.397 48.12 216.979 48.2267 217.491 48.44C218.008 48.648 218.424 48.9413 218.739 49.32C219.053 49.6987 219.24 50.1387 219.299 50.64L218.099 50.856C218.019 50.3493 217.765 49.9493 217.339 49.656C216.917 49.3573 216.381 49.2027 215.731 49.192C215.117 49.176 214.619 49.2933 214.235 49.544C213.851 49.7893 213.659 50.1173 213.659 50.528C213.659 50.7573 213.728 50.9547 213.867 51.12C214.005 51.28 214.256 51.432 214.619 51.576C214.987 51.72 215.509 51.8773 216.187 52.048C216.981 52.2507 217.605 52.464 218.059 52.688C218.512 52.912 218.835 53.176 219.027 53.48C219.219 53.784 219.315 54.16 219.315 54.608C219.315 55.424 219.011 56.0667 218.403 56.536C217.8 57 216.968 57.232 215.907 57.232ZM221.249 46.72V45.4H222.425V46.72H221.249ZM221.249 57V48.36H222.425V57H221.249ZM228.431 57.24C227.572 57.24 226.839 57.0453 226.231 56.656C225.623 56.2667 225.156 55.728 224.831 55.04C224.506 54.352 224.343 53.5627 224.343 52.672C224.343 51.7653 224.508 50.9707 224.839 50.288C225.17 49.6053 225.639 49.0747 226.247 48.696C226.86 48.312 227.588 48.12 228.431 48.12C229.295 48.12 230.031 48.3147 230.639 48.704C231.252 49.088 231.719 49.624 232.039 50.312C232.364 50.9947 232.527 51.7813 232.527 52.672C232.527 53.5787 232.364 54.376 232.039 55.064C231.714 55.7467 231.244 56.28 230.631 56.664C230.018 57.048 229.284 57.24 228.431 57.24ZM228.431 56.112C229.391 56.112 230.106 55.7947 230.575 55.16C231.044 54.52 231.279 53.6907 231.279 52.672C231.279 51.6267 231.042 50.7947 230.567 50.176C230.098 49.5573 229.386 49.248 228.431 49.248C227.786 49.248 227.252 49.3947 226.831 49.688C226.415 49.976 226.103 50.3787 225.895 50.896C225.692 51.408 225.591 52 225.591 52.672C225.591 53.712 225.831 54.5467 226.311 55.176C226.791 55.8 227.498 56.112 228.431 56.112ZM240.532 57V52.592C240.532 52.112 240.487 51.672 240.396 51.272C240.305 50.8667 240.159 50.5147 239.956 50.216C239.759 49.912 239.5 49.6773 239.18 49.512C238.865 49.3467 238.481 49.264 238.028 49.264C237.612 49.264 237.244 49.336 236.924 49.48C236.609 49.624 236.343 49.832 236.124 50.104C235.911 50.3707 235.748 50.696 235.636 51.08C235.524 51.464 235.468 51.9013 235.468 52.392L234.636 52.208C234.636 51.3227 234.791 50.5787 235.1 49.976C235.409 49.3733 235.836 48.9173 236.38 48.608C236.924 48.2987 237.548 48.144 238.252 48.144C238.769 48.144 239.22 48.224 239.604 48.384C239.993 48.544 240.321 48.76 240.588 49.032C240.86 49.304 241.079 49.616 241.244 49.968C241.409 50.3147 241.529 50.6853 241.604 51.08C241.679 51.4693 241.716 51.8587 241.716 52.248V57H240.532ZM234.284 57V48.36H235.348V50.488H235.468V57H234.284Z" fill="#565973"/>
<path d="M10.0003 80.6667C5.40533 80.6667 1.66699 84.405 1.66699 89C1.66699 93.595 5.40533 97.3334 10.0003 97.3334C14.5953 97.3334 18.3337 93.595 18.3337 89C18.3337 84.405 14.5953 80.6667 10.0003 80.6667ZM10.0003 95.6667C6.32449 95.6667 3.33366 92.6759 3.33366 89C3.33366 85.3242 6.32449 82.3334 10.0003 82.3334C13.6762 82.3334 16.667 85.3242 16.667 89C16.667 92.6759 13.6762 95.6667 10.0003 95.6667Z" fill="#6366F1"/>
<path d="M8.33273 90.3225L6.4169 88.41L5.24023 89.59L8.3344 92.6775L13.9227 87.0892L12.7444 85.9108L8.33273 90.3225Z" fill="#6366F1"/>
<path d="M29.12 95V83.48H30.2L34.728 93.168L39.232 83.48H40.328V94.992H39.208V86.104L35.104 95H34.344L30.248 86.104V95H29.12ZM45.0451 95.24C44.3945 95.24 43.8478 95.1227 43.4051 94.888C42.9678 94.6533 42.6398 94.3413 42.4211 93.952C42.2025 93.5627 42.0931 93.1387 42.0931 92.68C42.0931 92.2107 42.1865 91.8107 42.3731 91.48C42.5651 91.144 42.8238 90.8693 43.1491 90.656C43.4798 90.4427 43.8611 90.28 44.2931 90.168C44.7305 90.0613 45.2131 89.968 45.7411 89.888C46.2745 89.8027 46.7945 89.7307 47.3011 89.672C47.8131 89.608 48.2611 89.5467 48.6451 89.488L48.2291 89.744C48.2451 88.8907 48.0798 88.2587 47.7331 87.848C47.3865 87.4373 46.7838 87.232 45.9251 87.232C45.3331 87.232 44.8318 87.3653 44.4211 87.632C44.0158 87.8987 43.7305 88.32 43.5651 88.896L42.4211 88.56C42.6185 87.7867 43.0158 87.1867 43.6131 86.76C44.2105 86.3333 44.9865 86.12 45.9411 86.12C46.7305 86.12 47.3998 86.2693 47.9491 86.568C48.5038 86.8613 48.8958 87.288 49.1251 87.848C49.2318 88.0987 49.3011 88.3787 49.3331 88.688C49.3651 88.9973 49.3811 89.312 49.3811 89.632V95H48.3331V92.832L48.6371 92.96C48.3438 93.7013 47.8878 94.2667 47.2691 94.656C46.6505 95.0453 45.9091 95.24 45.0451 95.24ZM45.1811 94.224C45.7305 94.224 46.2105 94.1253 46.6211 93.928C47.0318 93.7307 47.3625 93.4613 47.6131 93.12C47.8638 92.7733 48.0265 92.384 48.1011 91.952C48.1651 91.6747 48.1998 91.3707 48.2051 91.04C48.2105 90.704 48.2131 90.4533 48.2131 90.288L48.6611 90.52C48.2611 90.5733 47.8265 90.6267 47.3571 90.68C46.8931 90.7333 46.4345 90.7947 45.9811 90.864C45.5331 90.9333 45.1278 91.016 44.7651 91.112C44.5198 91.1813 44.2825 91.28 44.0531 91.408C43.8238 91.5307 43.6345 91.696 43.4851 91.904C43.3411 92.112 43.2691 92.3707 43.2691 92.68C43.2691 92.9307 43.3305 93.1733 43.4531 93.408C43.5811 93.6427 43.7838 93.8373 44.0611 93.992C44.3438 94.1467 44.7171 94.224 45.1811 94.224ZM57.7038 95V90.592C57.7038 90.112 57.6584 89.672 57.5678 89.272C57.4771 88.8667 57.3304 88.5147 57.1278 88.216C56.9304 87.912 56.6718 87.6773 56.3518 87.512C56.0371 87.3467 55.6531 87.264 55.1998 87.264C54.7838 87.264 54.4158 87.336 54.0958 87.48C53.7811 87.624 53.5144 87.832 53.2958 88.104C53.0824 88.3707 52.9198 88.696 52.8078 89.08C52.6958 89.464 52.6398 89.9013 52.6398 90.392L51.8078 90.208C51.8078 89.3227 51.9624 88.5787 52.2718 87.976C52.5811 87.3733 53.0078 86.9173 53.5518 86.608C54.0958 86.2987 54.7198 86.144 55.4238 86.144C55.9411 86.144 56.3918 86.224 56.7758 86.384C57.1651 86.544 57.4931 86.76 57.7598 87.032C58.0318 87.304 58.2504 87.616 58.4158 87.968C58.5811 88.3147 58.7011 88.6853 58.7758 89.08C58.8504 89.4693 58.8878 89.8587 58.8878 90.248V95H57.7038ZM51.4558 95V86.36H52.5198V88.488H52.6398V95H51.4558ZM63.4358 95.24C62.7851 95.24 62.2384 95.1227 61.7958 94.888C61.3584 94.6533 61.0304 94.3413 60.8118 93.952C60.5931 93.5627 60.4838 93.1387 60.4838 92.68C60.4838 92.2107 60.5771 91.8107 60.7638 91.48C60.9558 91.144 61.2144 90.8693 61.5398 90.656C61.8704 90.4427 62.2518 90.28 62.6838 90.168C63.1211 90.0613 63.6038 89.968 64.1318 89.888C64.6651 89.8027 65.1851 89.7307 65.6918 89.672C66.2038 89.608 66.6518 89.5467 67.0358 89.488L66.6198 89.744C66.6358 88.8907 66.4704 88.2587 66.1238 87.848C65.7771 87.4373 65.1744 87.232 64.3158 87.232C63.7238 87.232 63.2224 87.3653 62.8118 87.632C62.4064 87.8987 62.1211 88.32 61.9557 88.896L60.8118 88.56C61.0091 87.7867 61.4064 87.1867 62.0038 86.76C62.6011 86.3333 63.3771 86.12 64.3318 86.12C65.1211 86.12 65.7904 86.2693 66.3398 86.568C66.8944 86.8613 67.2864 87.288 67.5158 87.848C67.6224 88.0987 67.6918 88.3787 67.7238 88.688C67.7558 88.9973 67.7718 89.312 67.7718 89.632V95H66.7238V92.832L67.0278 92.96C66.7344 93.7013 66.2784 94.2667 65.6598 94.656C65.0411 95.0453 64.2998 95.24 63.4358 95.24ZM63.5718 94.224C64.1211 94.224 64.6011 94.1253 65.0118 93.928C65.4224 93.7307 65.7531 93.4613 66.0038 93.12C66.2544 92.7733 66.4171 92.384 66.4918 91.952C66.5558 91.6747 66.5904 91.3707 66.5958 91.04C66.6011 90.704 66.6038 90.4533 66.6038 90.288L67.0518 90.52C66.6518 90.5733 66.2171 90.6267 65.7478 90.68C65.2838 90.7333 64.8251 90.7947 64.3718 90.864C63.9238 90.9333 63.5184 91.016 63.1558 91.112C62.9104 91.1813 62.6731 91.28 62.4438 91.408C62.2144 91.5307 62.0251 91.696 61.8758 91.904C61.7318 92.112 61.6598 92.3707 61.6598 92.68C61.6598 92.9307 61.7211 93.1733 61.8438 93.408C61.9718 93.6427 62.1744 93.8373 62.4518 93.992C62.7344 94.1467 63.1078 94.224 63.5718 94.224ZM73.2864 99.08C72.8437 99.08 72.4064 99.0133 71.9744 98.88C71.5477 98.752 71.153 98.5467 70.7904 98.264C70.4277 97.9867 70.1237 97.624 69.8784 97.176L70.9424 96.584C71.1824 97.064 71.5184 97.408 71.9504 97.616C72.3877 97.8293 72.833 97.936 73.2864 97.936C73.9104 97.936 74.4144 97.8187 74.7984 97.584C75.1877 97.3547 75.4704 97.0133 75.6464 96.56C75.8224 96.1067 75.9077 95.5413 75.9024 94.864V92.56H76.0384V86.36H77.0864V94.88C77.0864 95.1253 77.0784 95.36 77.0624 95.584C77.0517 95.8133 77.0277 96.0373 76.9904 96.256C76.889 96.9013 76.6784 97.432 76.3584 97.848C76.0437 98.264 75.6277 98.5733 75.1104 98.776C74.5984 98.9787 73.9904 99.08 73.2864 99.08ZM73.2064 95.24C72.401 95.24 71.713 95.04 71.1424 94.64C70.5717 94.2347 70.1344 93.688 69.8304 93C69.5264 92.312 69.3744 91.536 69.3744 90.672C69.3744 89.8133 69.5237 89.04 69.8224 88.352C70.1264 87.664 70.561 87.12 71.1264 86.72C71.6917 86.32 72.369 86.12 73.1584 86.12C73.969 86.12 74.6517 86.3173 75.2064 86.712C75.761 87.1067 76.1797 87.648 76.4624 88.336C76.7504 89.0187 76.8944 89.7973 76.8944 90.672C76.8944 91.5307 76.753 92.3067 76.4704 93C76.1877 93.688 75.7717 94.2347 75.2224 94.64C74.673 95.04 74.001 95.24 73.2064 95.24ZM73.3264 94.144C73.9397 94.144 74.4464 93.9947 74.8464 93.696C75.2464 93.3973 75.545 92.9867 75.7424 92.464C75.9397 91.936 76.0384 91.3387 76.0384 90.672C76.0384 89.9947 75.9397 89.3973 75.7424 88.88C75.545 88.3573 75.2464 87.9493 74.8464 87.656C74.4517 87.3627 73.953 87.216 73.3504 87.216C72.7317 87.216 72.2197 87.368 71.8144 87.672C71.409 87.976 71.1077 88.3893 70.9104 88.912C70.7184 89.4347 70.6224 90.0213 70.6224 90.672C70.6224 91.328 70.721 91.92 70.9184 92.448C71.121 92.9707 71.4224 93.384 71.8224 93.688C72.2224 93.992 72.7237 94.144 73.3264 94.144ZM82.9791 95.24C82.1365 95.24 81.4058 95.0533 80.7871 94.68C80.1738 94.3067 79.6965 93.7813 79.3551 93.104C79.0138 92.4267 78.8431 91.632 78.8431 90.72C78.8431 89.776 79.0111 88.96 79.3471 88.272C79.6831 87.584 80.1551 87.0533 80.7631 86.68C81.3765 86.3067 82.0991 86.12 82.9311 86.12C83.7845 86.12 84.5125 86.3173 85.1151 86.712C85.7178 87.1013 86.1738 87.6613 86.4831 88.392C86.7925 89.1227 86.9338 89.9947 86.9071 91.008H85.7071V90.592C85.6858 89.472 85.4431 88.6267 84.9791 88.056C84.5205 87.4853 83.8485 87.2 82.9631 87.2C82.0351 87.2 81.3231 87.5013 80.8271 88.104C80.3365 88.7067 80.0911 89.5653 80.0911 90.68C80.0911 91.768 80.3365 92.6133 80.8271 93.216C81.3231 93.8133 82.0245 94.112 82.9311 94.112C83.5498 94.112 84.0885 93.9707 84.5471 93.688C85.0111 93.4 85.3765 92.9867 85.6431 92.448L86.7391 92.872C86.3978 93.624 85.8938 94.208 85.2271 94.624C84.5658 95.0347 83.8165 95.24 82.9791 95.24ZM79.6751 91.008V90.024H86.2751V91.008H79.6751ZM95.7656 95.24C94.971 95.24 94.299 95.04 93.7496 94.64C93.2003 94.2347 92.7843 93.688 92.5016 93C92.219 92.3067 92.0776 91.5307 92.0776 90.672C92.0776 89.7973 92.219 89.0187 92.5016 88.336C92.7896 87.648 93.211 87.1067 93.7656 86.712C94.3203 86.3173 95.003 86.12 95.8136 86.12C96.603 86.12 97.2803 86.32 97.8456 86.72C98.411 87.12 98.843 87.664 99.1416 88.352C99.4456 89.04 99.5976 89.8133 99.5976 90.672C99.5976 91.536 99.4456 92.312 99.1416 93C98.8376 93.688 98.4003 94.2347 97.8296 94.64C97.259 95.04 96.571 95.24 95.7656 95.24ZM91.8776 98.84V86.36H92.9336V92.864H93.0616V98.84H91.8776ZM95.6456 94.144C96.2483 94.144 96.7496 93.992 97.1496 93.688C97.5496 93.384 97.8483 92.9707 98.0456 92.448C98.2483 91.92 98.3496 91.328 98.3496 90.672C98.3496 90.0213 98.251 89.4347 98.0536 88.912C97.8563 88.3893 97.555 87.976 97.1496 87.672C96.7496 87.368 96.2403 87.216 95.6216 87.216C95.019 87.216 94.5176 87.3627 94.1176 87.656C93.723 87.9493 93.427 88.3573 93.2296 88.88C93.0323 89.3973 92.9336 89.9947 92.9336 90.672C92.9336 91.3387 93.0323 91.936 93.2296 92.464C93.427 92.9867 93.7256 93.3973 94.1256 93.696C94.5256 93.9947 95.0323 94.144 95.6456 94.144ZM103.826 95.24C103.176 95.24 102.629 95.1227 102.186 94.888C101.749 94.6533 101.421 94.3413 101.202 93.952C100.984 93.5627 100.874 93.1387 100.874 92.68C100.874 92.2107 100.968 91.8107 101.154 91.48C101.346 91.144 101.605 90.8693 101.93 90.656C102.261 90.4427 102.642 90.28 103.074 90.168C103.512 90.0613 103.994 89.968 104.522 89.888C105.056 89.8027 105.576 89.7307 106.082 89.672C106.594 89.608 107.042 89.5467 107.426 89.488L107.01 89.744C107.026 88.8907 106.861 88.2587 106.514 87.848C106.168 87.4373 105.565 87.232 104.706 87.232C104.114 87.232 103.613 87.3653 103.202 87.632C102.797 87.8987 102.512 88.32 102.346 88.896L101.202 88.56C101.4 87.7867 101.797 87.1867 102.394 86.76C102.992 86.3333 103.768 86.12 104.722 86.12C105.512 86.12 106.181 86.2693 106.73 86.568C107.285 86.8613 107.677 87.288 107.906 87.848C108.013 88.0987 108.082 88.3787 108.114 88.688C108.146 88.9973 108.162 89.312 108.162 89.632V95H107.114V92.832L107.418 92.96C107.125 93.7013 106.669 94.2667 106.05 94.656C105.432 95.0453 104.69 95.24 103.826 95.24ZM103.962 94.224C104.512 94.224 104.992 94.1253 105.402 93.928C105.813 93.7307 106.144 93.4613 106.394 93.12C106.645 92.7733 106.808 92.384 106.882 91.952C106.946 91.6747 106.981 91.3707 106.986 91.04C106.992 90.704 106.994 90.4533 106.994 90.288L107.442 90.52C107.042 90.5733 106.608 90.6267 106.138 90.68C105.674 90.7333 105.216 90.7947 104.762 90.864C104.314 90.9333 103.909 91.016 103.546 91.112C103.301 91.1813 103.064 91.28 102.834 91.408C102.605 91.5307 102.416 91.696 102.266 91.904C102.122 92.112 102.05 92.3707 102.05 92.68C102.05 92.9307 102.112 93.1733 102.234 93.408C102.362 93.6427 102.565 93.8373 102.842 93.992C103.125 94.1467 103.498 94.224 103.962 94.224ZM110.993 98.84L112.665 94.304L112.689 95.648L108.905 86.36H110.153L113.257 94.128H112.745L115.609 86.36H116.809L112.169 98.84H110.993ZM128.502 95L128.51 89.328C128.51 88.6613 128.323 88.1387 127.95 87.76C127.582 87.376 127.113 87.184 126.542 87.184C126.217 87.184 125.899 87.2587 125.59 87.408C125.281 87.5573 125.025 87.7973 124.822 88.128C124.625 88.4587 124.526 88.8907 124.526 89.424L123.83 89.224C123.814 88.6053 123.934 88.064 124.19 87.6C124.451 87.136 124.809 86.776 125.262 86.52C125.721 86.2587 126.238 86.128 126.814 86.128C127.683 86.128 128.379 86.3973 128.902 86.936C129.425 87.4693 129.686 88.192 129.686 89.104L129.678 95H128.502ZM118.19 95V86.36H119.246V88.488H119.374V95H118.19ZM123.358 95L123.366 89.408C123.366 88.72 123.182 88.1787 122.814 87.784C122.451 87.384 121.971 87.184 121.374 87.184C120.777 87.184 120.294 87.3893 119.926 87.8C119.558 88.2053 119.374 88.7467 119.374 89.424L118.67 89.04C118.67 88.4853 118.801 87.9893 119.062 87.552C119.323 87.1093 119.681 86.7627 120.134 86.512C120.587 86.256 121.102 86.128 121.678 86.128C122.227 86.128 122.715 86.2453 123.142 86.48C123.574 86.7147 123.913 87.056 124.158 87.504C124.403 87.952 124.526 88.496 124.526 89.136L124.518 95H123.358ZM135.37 95.24C134.527 95.24 133.796 95.0533 133.178 94.68C132.564 94.3067 132.087 93.7813 131.746 93.104C131.404 92.4267 131.234 91.632 131.234 90.72C131.234 89.776 131.402 88.96 131.738 88.272C132.074 87.584 132.546 87.0533 133.154 86.68C133.767 86.3067 134.49 86.12 135.322 86.12C136.175 86.12 136.903 86.3173 137.506 86.712C138.108 87.1013 138.564 87.6613 138.874 88.392C139.183 89.1227 139.324 89.9947 139.298 91.008H138.098V90.592C138.076 89.472 137.834 88.6267 137.37 88.056C136.911 87.4853 136.239 87.2 135.354 87.2C134.426 87.2 133.714 87.5013 133.218 88.104C132.727 88.7067 132.482 89.5653 132.482 90.68C132.482 91.768 132.727 92.6133 133.218 93.216C133.714 93.8133 134.415 94.112 135.322 94.112C135.94 94.112 136.479 93.9707 136.938 93.688C137.402 93.4 137.767 92.9867 138.034 92.448L139.13 92.872C138.788 93.624 138.284 94.208 137.618 94.624C136.956 95.0347 136.207 95.24 135.37 95.24ZM132.066 91.008V90.024H138.666V91.008H132.066ZM147.079 95V90.592C147.079 90.112 147.033 89.672 146.943 89.272C146.852 88.8667 146.705 88.5147 146.503 88.216C146.305 87.912 146.047 87.6773 145.727 87.512C145.412 87.3467 145.028 87.264 144.575 87.264C144.159 87.264 143.791 87.336 143.471 87.48C143.156 87.624 142.889 87.832 142.671 88.104C142.457 88.3707 142.295 88.696 142.183 89.08C142.071 89.464 142.015 89.9013 142.015 90.392L141.183 90.208C141.183 89.3227 141.337 88.5787 141.647 87.976C141.956 87.3733 142.383 86.9173 142.927 86.608C143.471 86.2987 144.095 86.144 144.799 86.144C145.316 86.144 145.767 86.224 146.151 86.384C146.54 86.544 146.868 86.76 147.135 87.032C147.407 87.304 147.625 87.616 147.791 87.968C147.956 88.3147 148.076 88.6853 148.151 89.08C148.225 89.4693 148.263 89.8587 148.263 90.248V95H147.079ZM140.831 95V86.36H141.895V88.488H142.015V95H140.831ZM155.043 95C154.557 95.1013 154.077 95.1413 153.603 95.12C153.133 95.0987 152.712 94.9973 152.339 94.816C151.971 94.6347 151.691 94.352 151.499 93.968C151.344 93.648 151.259 93.3253 151.243 93C151.232 92.6693 151.227 92.2933 151.227 91.872V83.96H152.395V91.824C152.395 92.1867 152.397 92.4907 152.403 92.736C152.413 92.976 152.469 93.1893 152.571 93.376C152.763 93.7333 153.067 93.9467 153.483 94.016C153.904 94.0853 154.424 94.0693 155.043 93.968V95ZM149.379 87.368V86.36H155.043V87.368H149.379ZM159.969 95.232C158.956 95.232 158.121 95.0133 157.465 94.576C156.814 94.1387 156.414 93.5307 156.265 92.752L157.465 92.552C157.593 93.0427 157.884 93.4347 158.337 93.728C158.796 94.016 159.361 94.16 160.033 94.16C160.689 94.16 161.206 94.024 161.585 93.752C161.964 93.4747 162.153 93.0987 162.153 92.624C162.153 92.3573 162.092 92.1413 161.969 91.976C161.852 91.8053 161.609 91.648 161.241 91.504C160.873 91.36 160.324 91.1893 159.593 90.992C158.809 90.7787 158.196 90.5653 157.753 90.352C157.31 90.1387 156.996 89.8933 156.809 89.616C156.622 89.3333 156.529 88.9893 156.529 88.584C156.529 88.0933 156.668 87.664 156.945 87.296C157.222 86.9227 157.606 86.6347 158.097 86.432C158.588 86.224 159.158 86.12 159.809 86.12C160.46 86.12 161.041 86.2267 161.553 86.44C162.07 86.648 162.486 86.9413 162.801 87.32C163.116 87.6987 163.302 88.1387 163.361 88.64L162.161 88.856C162.081 88.3493 161.828 87.9493 161.401 87.656C160.98 87.3573 160.444 87.2027 159.793 87.192C159.18 87.176 158.681 87.2933 158.297 87.544C157.913 87.7893 157.721 88.1173 157.721 88.528C157.721 88.7573 157.79 88.9547 157.929 89.12C158.068 89.28 158.318 89.432 158.681 89.576C159.049 89.72 159.572 89.8773 160.249 90.048C161.044 90.2507 161.668 90.464 162.121 90.688C162.574 90.912 162.897 91.176 163.089 91.48C163.281 91.784 163.377 92.16 163.377 92.608C163.377 93.424 163.073 94.0667 162.465 94.536C161.862 95 161.03 95.232 159.969 95.232ZM170.826 95.24C170.176 95.24 169.629 95.1227 169.186 94.888C168.749 94.6533 168.421 94.3413 168.202 93.952C167.984 93.5627 167.874 93.1387 167.874 92.68C167.874 92.2107 167.968 91.8107 168.154 91.48C168.346 91.144 168.605 90.8693 168.93 90.656C169.261 90.4427 169.642 90.28 170.074 90.168C170.512 90.0613 170.994 89.968 171.522 89.888C172.056 89.8027 172.576 89.7307 173.082 89.672C173.594 89.608 174.042 89.5467 174.426 89.488L174.01 89.744C174.026 88.8907 173.861 88.2587 173.514 87.848C173.168 87.4373 172.565 87.232 171.706 87.232C171.114 87.232 170.613 87.3653 170.202 87.632C169.797 87.8987 169.512 88.32 169.346 88.896L168.202 88.56C168.4 87.7867 168.797 87.1867 169.394 86.76C169.992 86.3333 170.768 86.12 171.722 86.12C172.512 86.12 173.181 86.2693 173.73 86.568C174.285 86.8613 174.677 87.288 174.906 87.848C175.013 88.0987 175.082 88.3787 175.114 88.688C175.146 88.9973 175.162 89.312 175.162 89.632V95H174.114V92.832L174.418 92.96C174.125 93.7013 173.669 94.2667 173.05 94.656C172.432 95.0453 171.69 95.24 170.826 95.24ZM170.962 94.224C171.512 94.224 171.992 94.1253 172.402 93.928C172.813 93.7307 173.144 93.4613 173.394 93.12C173.645 92.7733 173.808 92.384 173.882 91.952C173.946 91.6747 173.981 91.3707 173.986 91.04C173.992 90.704 173.994 90.4533 173.994 90.288L174.442 90.52C174.042 90.5733 173.608 90.6267 173.138 90.68C172.674 90.7333 172.216 90.7947 171.762 90.864C171.314 90.9333 170.909 91.016 170.546 91.112C170.301 91.1813 170.064 91.28 169.834 91.408C169.605 91.5307 169.416 91.696 169.266 91.904C169.122 92.112 169.05 92.3707 169.05 92.68C169.05 92.9307 169.112 93.1733 169.234 93.408C169.362 93.6427 169.565 93.8373 169.842 93.992C170.125 94.1467 170.498 94.224 170.962 94.224ZM183.485 95V90.592C183.485 90.112 183.44 89.672 183.349 89.272C183.258 88.8667 183.112 88.5147 182.909 88.216C182.712 87.912 182.453 87.6773 182.133 87.512C181.818 87.3467 181.434 87.264 180.981 87.264C180.565 87.264 180.197 87.336 179.877 87.48C179.562 87.624 179.296 87.832 179.077 88.104C178.864 88.3707 178.701 88.696 178.589 89.08C178.477 89.464 178.421 89.9013 178.421 90.392L177.589 90.208C177.589 89.3227 177.744 88.5787 178.053 87.976C178.362 87.3733 178.789 86.9173 179.333 86.608C179.877 86.2987 180.501 86.144 181.205 86.144C181.722 86.144 182.173 86.224 182.557 86.384C182.946 86.544 183.274 86.76 183.541 87.032C183.813 87.304 184.032 87.616 184.197 87.968C184.362 88.3147 184.482 88.6853 184.557 89.08C184.632 89.4693 184.669 89.8587 184.669 90.248V95H183.485ZM177.237 95V86.36H178.301V88.488H178.421V95H177.237ZM190.05 95.24C189.245 95.24 188.557 95.04 187.986 94.64C187.415 94.2347 186.978 93.688 186.674 93C186.37 92.312 186.218 91.536 186.218 90.672C186.218 89.8133 186.367 89.04 186.666 88.352C186.97 87.664 187.405 87.12 187.97 86.72C188.535 86.32 189.213 86.12 190.002 86.12C190.813 86.12 191.495 86.3173 192.05 86.712C192.605 87.1067 193.023 87.648 193.306 88.336C193.594 89.0187 193.738 89.7973 193.738 90.672C193.738 91.5307 193.597 92.3067 193.314 93C193.031 93.688 192.615 94.2347 192.066 94.64C191.517 95.04 190.845 95.24 190.05 95.24ZM190.17 94.144C190.783 94.144 191.29 93.9947 191.69 93.696C192.09 93.3973 192.389 92.9867 192.586 92.464C192.783 91.936 192.882 91.3387 192.882 90.672C192.882 89.9947 192.783 89.3973 192.586 88.88C192.389 88.3573 192.09 87.9493 191.69 87.656C191.295 87.3627 190.797 87.216 190.194 87.216C189.575 87.216 189.063 87.368 188.658 87.672C188.253 87.976 187.951 88.3893 187.754 88.912C187.562 89.4347 187.466 90.0213 187.466 90.672C187.466 91.328 187.565 91.92 187.762 92.448C187.965 92.9707 188.266 93.384 188.666 93.688C189.066 93.992 189.567 94.144 190.17 94.144ZM192.882 95V88.496H192.754V83.48H193.938V95H192.882ZM204.09 95C203.604 95.1013 203.124 95.1413 202.65 95.12C202.18 95.0987 201.759 94.9973 201.386 94.816C201.018 94.6347 200.738 94.352 200.546 93.968C200.391 93.648 200.306 93.3253 200.29 93C200.279 92.6693 200.274 92.2933 200.274 91.872V83.96H201.442V91.824C201.442 92.1867 201.444 92.4907 201.45 92.736C201.46 92.976 201.516 93.1893 201.618 93.376C201.81 93.7333 202.114 93.9467 202.53 94.016C202.951 94.0853 203.471 94.0693 204.09 93.968V95ZM198.426 87.368V86.36H204.09V87.368H198.426ZM205.792 95V86.36H206.848V88.44L206.64 88.168C206.736 87.912 206.861 87.6773 207.016 87.464C207.171 87.2453 207.339 87.0667 207.52 86.928C207.744 86.7307 208.005 86.5813 208.304 86.48C208.603 86.3733 208.904 86.312 209.208 86.296C209.512 86.2747 209.789 86.296 210.04 86.36V87.464C209.725 87.384 209.381 87.3653 209.008 87.408C208.635 87.4507 208.291 87.6 207.976 87.856C207.688 88.08 207.472 88.3493 207.328 88.664C207.184 88.9733 207.088 89.304 207.04 89.656C206.992 90.0027 206.968 90.3467 206.968 90.688V95H205.792ZM213.701 95.24C213.051 95.24 212.504 95.1227 212.061 94.888C211.624 94.6533 211.296 94.3413 211.077 93.952C210.859 93.5627 210.749 93.1387 210.749 92.68C210.749 92.2107 210.843 91.8107 211.029 91.48C211.221 91.144 211.48 90.8693 211.805 90.656C212.136 90.4427 212.517 90.28 212.949 90.168C213.387 90.0613 213.869 89.968 214.397 89.888C214.931 89.8027 215.451 89.7307 215.957 89.672C216.469 89.608 216.917 89.5467 217.301 89.488L216.885 89.744C216.901 88.8907 216.736 88.2587 216.389 87.848C216.043 87.4373 215.44 87.232 214.581 87.232C213.989 87.232 213.488 87.3653 213.077 87.632C212.672 87.8987 212.387 88.32 212.221 88.896L211.077 88.56C211.275 87.7867 211.672 87.1867 212.269 86.76C212.867 86.3333 213.643 86.12 214.597 86.12C215.387 86.12 216.056 86.2693 216.605 86.568C217.16 86.8613 217.552 87.288 217.781 87.848C217.888 88.0987 217.957 88.3787 217.989 88.688C218.021 88.9973 218.037 89.312 218.037 89.632V95H216.989V92.832L217.293 92.96C217 93.7013 216.544 94.2667 215.925 94.656C215.307 95.0453 214.565 95.24 213.701 95.24ZM213.837 94.224C214.387 94.224 214.867 94.1253 215.277 93.928C215.688 93.7307 216.019 93.4613 216.269 93.12C216.52 92.7733 216.683 92.384 216.757 91.952C216.821 91.6747 216.856 91.3707 216.861 91.04C216.867 90.704 216.869 90.4533 216.869 90.288L217.317 90.52C216.917 90.5733 216.483 90.6267 216.013 90.68C215.549 90.7333 215.091 90.7947 214.637 90.864C214.189 90.9333 213.784 91.016 213.421 91.112C213.176 91.1813 212.939 91.28 212.709 91.408C212.48 91.5307 212.291 91.696 212.141 91.904C211.997 92.112 211.925 92.3707 211.925 92.68C211.925 92.9307 211.987 93.1733 212.109 93.408C212.237 93.6427 212.44 93.8373 212.717 93.992C213 94.1467 213.373 94.224 213.837 94.224ZM226.36 95V90.592C226.36 90.112 226.315 89.672 226.224 89.272C226.133 88.8667 225.987 88.5147 225.784 88.216C225.587 87.912 225.328 87.6773 225.008 87.512C224.693 87.3467 224.309 87.264 223.856 87.264C223.44 87.264 223.072 87.336 222.752 87.48C222.437 87.624 222.171 87.832 221.952 88.104C221.739 88.3707 221.576 88.696 221.464 89.08C221.352 89.464 221.296 89.9013 221.296 90.392L220.464 90.208C220.464 89.3227 220.619 88.5787 220.928 87.976C221.237 87.3733 221.664 86.9173 222.208 86.608C222.752 86.2987 223.376 86.144 224.08 86.144C224.597 86.144 225.048 86.224 225.432 86.384C225.821 86.544 226.149 86.76 226.416 87.032C226.688 87.304 226.907 87.616 227.072 87.968C227.237 88.3147 227.357 88.6853 227.432 89.08C227.507 89.4693 227.544 89.8587 227.544 90.248V95H226.36ZM220.112 95V86.36H221.176V88.488H221.296V95H220.112ZM232.844 95.232C231.831 95.232 230.996 95.0133 230.34 94.576C229.689 94.1387 229.289 93.5307 229.14 92.752L230.34 92.552C230.468 93.0427 230.759 93.4347 231.212 93.728C231.671 94.016 232.236 94.16 232.908 94.16C233.564 94.16 234.081 94.024 234.46 93.752C234.839 93.4747 235.028 93.0987 235.028 92.624C235.028 92.3573 234.967 92.1413 234.844 91.976C234.727 91.8053 234.484 91.648 234.116 91.504C233.748 91.36 233.199 91.1893 232.468 90.992C231.684 90.7787 231.071 90.5653 230.628 90.352C230.185 90.1387 229.871 89.8933 229.684 89.616C229.497 89.3333 229.404 88.9893 229.404 88.584C229.404 88.0933 229.543 87.664 229.82 87.296C230.097 86.9227 230.481 86.6347 230.972 86.432C231.463 86.224 232.033 86.12 232.684 86.12C233.335 86.12 233.916 86.2267 234.428 86.44C234.945 86.648 235.361 86.9413 235.676 87.32C235.991 87.6987 236.177 88.1387 236.236 88.64L235.036 88.856C234.956 88.3493 234.703 87.9493 234.276 87.656C233.855 87.3573 233.319 87.2027 232.668 87.192C232.055 87.176 231.556 87.2933 231.172 87.544C230.788 87.7893 230.596 88.1173 230.596 88.528C230.596 88.7573 230.665 88.9547 230.804 89.12C230.943 89.28 231.193 89.432 231.556 89.576C231.924 89.72 232.447 89.8773 233.124 90.048C233.919 90.2507 234.543 90.464 234.996 90.688C235.449 90.912 235.772 91.176 235.964 91.48C236.156 91.784 236.252 92.16 236.252 92.608C236.252 93.424 235.948 94.0667 235.34 94.536C234.737 95 233.905 95.232 232.844 95.232ZM240.498 95.24C239.848 95.24 239.301 95.1227 238.858 94.888C238.421 94.6533 238.093 94.3413 237.874 93.952C237.656 93.5627 237.546 93.1387 237.546 92.68C237.546 92.2107 237.64 91.8107 237.826 91.48C238.018 91.144 238.277 90.8693 238.602 90.656C238.933 90.4427 239.314 90.28 239.746 90.168C240.184 90.0613 240.666 89.968 241.194 89.888C241.728 89.8027 242.248 89.7307 242.754 89.672C243.266 89.608 243.714 89.5467 244.098 89.488L243.682 89.744C243.698 88.8907 243.533 88.2587 243.186 87.848C242.84 87.4373 242.237 87.232 241.378 87.232C240.786 87.232 240.285 87.3653 239.874 87.632C239.469 87.8987 239.184 88.32 239.018 88.896L237.874 88.56C238.072 87.7867 238.469 87.1867 239.066 86.76C239.664 86.3333 240.44 86.12 241.394 86.12C242.184 86.12 242.853 86.2693 243.402 86.568C243.957 86.8613 244.349 87.288 244.578 87.848C244.685 88.0987 244.754 88.3787 244.786 88.688C244.818 88.9973 244.834 89.312 244.834 89.632V95H243.786V92.832L244.09 92.96C243.797 93.7013 243.341 94.2667 242.722 94.656C242.104 95.0453 241.362 95.24 240.498 95.24ZM240.634 94.224C241.184 94.224 241.664 94.1253 242.074 93.928C242.485 93.7307 242.816 93.4613 243.066 93.12C243.317 92.7733 243.48 92.384 243.554 91.952C243.618 91.6747 243.653 91.3707 243.658 91.04C243.664 90.704 243.666 90.4533 243.666 90.288L244.114 90.52C243.714 90.5733 243.28 90.6267 242.81 90.68C242.346 90.7333 241.888 90.7947 241.434 90.864C240.986 90.9333 240.581 91.016 240.218 91.112C239.973 91.1813 239.736 91.28 239.506 91.408C239.277 91.5307 239.088 91.696 238.938 91.904C238.794 92.112 238.722 92.3707 238.722 92.68C238.722 92.9307 238.784 93.1733 238.906 93.408C239.034 93.6427 239.237 93.8373 239.514 93.992C239.797 94.1467 240.17 94.224 240.634 94.224ZM250.501 95.24C249.632 95.24 248.896 95.0453 248.293 94.656C247.69 94.2667 247.232 93.7307 246.917 93.048C246.608 92.36 246.448 91.5707 246.437 90.68C246.448 89.7733 246.613 88.9787 246.933 88.296C247.253 87.608 247.714 87.0747 248.317 86.696C248.92 86.312 249.65 86.12 250.509 86.12C251.384 86.12 252.144 86.3333 252.789 86.76C253.44 87.1867 253.885 87.7707 254.125 88.512L252.973 88.88C252.77 88.3627 252.448 87.9627 252.005 87.68C251.568 87.392 251.066 87.248 250.501 87.248C249.866 87.248 249.341 87.3947 248.925 87.688C248.509 87.976 248.2 88.3787 247.997 88.896C247.794 89.4133 247.69 90.008 247.685 90.68C247.696 91.7147 247.936 92.5467 248.405 93.176C248.874 93.8 249.573 94.112 250.501 94.112C251.088 94.112 251.586 93.9787 251.997 93.712C252.413 93.44 252.728 93.0453 252.941 92.528L254.125 92.88C253.805 93.648 253.336 94.2347 252.717 94.64C252.098 95.04 251.36 95.24 250.501 95.24ZM260.48 95C259.995 95.1013 259.515 95.1413 259.04 95.12C258.571 95.0987 258.15 94.9973 257.776 94.816C257.408 94.6347 257.128 94.352 256.936 93.968C256.782 93.648 256.696 93.3253 256.68 93C256.67 92.6693 256.664 92.2933 256.664 91.872V83.96H257.832V91.824C257.832 92.1867 257.835 92.4907 257.84 92.736C257.851 92.976 257.907 93.1893 258.008 93.376C258.2 93.7333 258.504 93.9467 258.92 94.016C259.342 94.0853 259.862 94.0693 260.48 93.968V95ZM254.816 87.368V86.36H260.48V87.368H254.816ZM262.343 84.72V83.4H263.519V84.72H262.343ZM262.343 95V86.36H263.519V95H262.343ZM269.525 95.24C268.666 95.24 267.933 95.0453 267.325 94.656C266.717 94.2667 266.25 93.728 265.925 93.04C265.6 92.352 265.437 91.5627 265.437 90.672C265.437 89.7653 265.602 88.9707 265.933 88.288C266.264 87.6053 266.733 87.0747 267.341 86.696C267.954 86.312 268.682 86.12 269.525 86.12C270.389 86.12 271.125 86.3147 271.733 86.704C272.346 87.088 272.813 87.624 273.133 88.312C273.458 88.9947 273.621 89.7813 273.621 90.672C273.621 91.5787 273.458 92.376 273.133 93.064C272.808 93.7467 272.338 94.28 271.725 94.664C271.112 95.048 270.378 95.24 269.525 95.24ZM269.525 94.112C270.485 94.112 271.2 93.7947 271.669 93.16C272.138 92.52 272.373 91.6907 272.373 90.672C272.373 89.6267 272.136 88.7947 271.661 88.176C271.192 87.5573 270.48 87.248 269.525 87.248C268.88 87.248 268.346 87.3947 267.925 87.688C267.509 87.976 267.197 88.3787 266.989 88.896C266.786 89.408 266.685 90 266.685 90.672C266.685 91.712 266.925 92.5467 267.405 93.176C267.885 93.8 268.592 94.112 269.525 94.112ZM281.626 95V90.592C281.626 90.112 281.58 89.672 281.49 89.272C281.399 88.8667 281.252 88.5147 281.05 88.216C280.852 87.912 280.594 87.6773 280.274 87.512C279.959 87.3467 279.575 87.264 279.122 87.264C278.706 87.264 278.338 87.336 278.018 87.48C277.703 87.624 277.436 87.832 277.218 88.104C277.004 88.3707 276.842 88.696 276.73 89.08C276.618 89.464 276.562 89.9013 276.562 90.392L275.73 90.208C275.73 89.3227 275.884 88.5787 276.194 87.976C276.503 87.3733 276.93 86.9173 277.474 86.608C278.018 86.2987 278.642 86.144 279.346 86.144C279.863 86.144 280.314 86.224 280.698 86.384C281.087 86.544 281.415 86.76 281.682 87.032C281.954 87.304 282.172 87.616 282.338 87.968C282.503 88.3147 282.623 88.6853 282.698 89.08C282.772 89.4693 282.81 89.8587 282.81 90.248V95H281.626ZM275.378 95V86.36H276.442V88.488H276.562V95H275.378ZM288.11 95.232C287.096 95.232 286.262 95.0133 285.606 94.576C284.955 94.1387 284.555 93.5307 284.406 92.752L285.606 92.552C285.734 93.0427 286.024 93.4347 286.478 93.728C286.936 94.016 287.502 94.16 288.174 94.16C288.83 94.16 289.347 94.024 289.726 93.752C290.104 93.4747 290.294 93.0987 290.294 92.624C290.294 92.3573 290.232 92.1413 290.11 91.976C289.992 91.8053 289.75 91.648 289.382 91.504C289.014 91.36 288.464 91.1893 287.734 90.992C286.95 90.7787 286.336 90.5653 285.894 90.352C285.451 90.1387 285.136 89.8933 284.95 89.616C284.763 89.3333 284.67 88.9893 284.67 88.584C284.67 88.0933 284.808 87.664 285.086 87.296C285.363 86.9227 285.747 86.6347 286.238 86.432C286.728 86.224 287.299 86.12 287.95 86.12C288.6 86.12 289.182 86.2267 289.694 86.44C290.211 86.648 290.627 86.9413 290.942 87.32C291.256 87.6987 291.443 88.1387 291.502 88.64L290.302 88.856C290.222 88.3493 289.968 87.9493 289.542 87.656C289.12 87.3573 288.584 87.2027 287.934 87.192C287.32 87.176 286.822 87.2933 286.438 87.544C286.054 87.7893 285.862 88.1173 285.862 88.528C285.862 88.7573 285.931 88.9547 286.07 89.12C286.208 89.28 286.459 89.432 286.822 89.576C287.19 89.72 287.712 89.8773 288.39 90.048C289.184 90.2507 289.808 90.464 290.262 90.688C290.715 90.912 291.038 91.176 291.23 91.48C291.422 91.784 291.518 92.16 291.518 92.608C291.518 93.424 291.214 94.0667 290.606 94.536C290.003 95 289.171 95.232 288.11 95.232ZM300.103 95.24C299.244 95.24 298.511 95.0453 297.903 94.656C297.295 94.2667 296.828 93.728 296.503 93.04C296.178 92.352 296.015 91.5627 296.015 90.672C296.015 89.7653 296.18 88.9707 296.511 88.288C296.842 87.6053 297.311 87.0747 297.919 86.696C298.532 86.312 299.26 86.12 300.103 86.12C300.967 86.12 301.703 86.3147 302.311 86.704C302.924 87.088 303.391 87.624 303.711 88.312C304.036 88.9947 304.199 89.7813 304.199 90.672C304.199 91.5787 304.036 92.376 303.711 93.064C303.386 93.7467 302.916 94.28 302.303 94.664C301.69 95.048 300.956 95.24 300.103 95.24ZM300.103 94.112C301.063 94.112 301.778 93.7947 302.247 93.16C302.716 92.52 302.951 91.6907 302.951 90.672C302.951 89.6267 302.714 88.7947 302.239 88.176C301.77 87.5573 301.058 87.248 300.103 87.248C299.458 87.248 298.924 87.3947 298.503 87.688C298.087 87.976 297.775 88.3787 297.567 88.896C297.364 89.408 297.263 90 297.263 90.672C297.263 91.712 297.503 92.5467 297.983 93.176C298.463 93.8 299.17 94.112 300.103 94.112ZM312.204 95V90.592C312.204 90.112 312.158 89.672 312.068 89.272C311.977 88.8667 311.83 88.5147 311.628 88.216C311.43 87.912 311.172 87.6773 310.852 87.512C310.537 87.3467 310.153 87.264 309.7 87.264C309.284 87.264 308.916 87.336 308.596 87.48C308.281 87.624 308.014 87.832 307.796 88.104C307.582 88.3707 307.42 88.696 307.308 89.08C307.196 89.464 307.14 89.9013 307.14 90.392L306.308 90.208C306.308 89.3227 306.462 88.5787 306.772 87.976C307.081 87.3733 307.508 86.9173 308.052 86.608C308.596 86.2987 309.22 86.144 309.924 86.144C310.441 86.144 310.892 86.224 311.276 86.384C311.665 86.544 311.993 86.76 312.26 87.032C312.532 87.304 312.75 87.616 312.916 87.968C313.081 88.3147 313.201 88.6853 313.276 89.08C313.35 89.4693 313.388 89.8587 313.388 90.248V95H312.204ZM305.956 95V86.36H307.02V88.488H307.14V95H305.956ZM315.624 95V83.24H316.8V95H315.624ZM319.358 84.72V83.4H320.534V84.72H319.358ZM319.358 95V86.36H320.534V95H319.358ZM329.173 95V90.592C329.173 90.112 329.127 89.672 329.037 89.272C328.946 88.8667 328.799 88.5147 328.597 88.216C328.399 87.912 328.141 87.6773 327.821 87.512C327.506 87.3467 327.122 87.264 326.669 87.264C326.253 87.264 325.885 87.336 325.565 87.48C325.25 87.624 324.983 87.832 324.765 88.104C324.551 88.3707 324.389 88.696 324.277 89.08C324.165 89.464 324.109 89.9013 324.109 90.392L323.277 90.208C323.277 89.3227 323.431 88.5787 323.741 87.976C324.05 87.3733 324.477 86.9173 325.021 86.608C325.565 86.2987 326.189 86.144 326.893 86.144C327.41 86.144 327.861 86.224 328.245 86.384C328.634 86.544 328.962 86.76 329.229 87.032C329.501 87.304 329.719 87.616 329.885 87.968C330.05 88.3147 330.17 88.6853 330.245 89.08C330.319 89.4693 330.357 89.8587 330.357 90.248V95H329.173ZM322.925 95V86.36H323.989V88.488H324.109V95H322.925ZM336.042 95.24C335.199 95.24 334.468 95.0533 333.85 94.68C333.236 94.3067 332.759 93.7813 332.418 93.104C332.076 92.4267 331.906 91.632 331.906 90.72C331.906 89.776 332.074 88.96 332.41 88.272C332.746 87.584 333.218 87.0533 333.826 86.68C334.439 86.3067 335.162 86.12 335.994 86.12C336.847 86.12 337.575 86.3173 338.178 86.712C338.78 87.1013 339.236 87.6613 339.546 88.392C339.855 89.1227 339.996 89.9947 339.97 91.008H338.77V90.592C338.748 89.472 338.506 88.6267 338.042 88.056C337.583 87.4853 336.911 87.2 336.026 87.2C335.098 87.2 334.386 87.5013 333.89 88.104C333.399 88.7067 333.154 89.5653 333.154 90.68C333.154 91.768 333.399 92.6133 333.89 93.216C334.386 93.8133 335.087 94.112 335.994 94.112C336.612 94.112 337.151 93.9707 337.61 93.688C338.074 93.4 338.439 92.9867 338.706 92.448L339.802 92.872C339.46 93.624 338.956 94.208 338.29 94.624C337.628 95.0347 336.879 95.24 336.042 95.24ZM332.738 91.008V90.024H339.338V91.008H332.738Z" fill="#565973"/>
</svg>
